<?xml version="1.0" encoding="UTF-8"?>
<svg width="24px" height="24px" viewBox="0 0 24 24" version="1.1" xmlns="http://www.w3.org/2000/svg" xmlns:xlink="http://www.w3.org/1999/xlink">
    <!-- Generator: Sketch 52.3 (67297) - http://www.bohemiancoding.com/sketch -->
    <title>system-icons/account</title>
    <desc>Created with Sketch.</desc>
    <g id="system-icons/account" stroke="none" stroke-width="1" fill="none" fill-rule="evenodd">
        <path d="M4.86041516,19.0020961 C6.67519128,20.8522302 9.20345474,22 11.9998,22 C14.790657,22 17.3144835,20.8567311 19.1284913,19.0129815 C19.113994,18.9915259 19.1009799,18.9686643 19.0896556,18.9444716 C17.8129752,16.2170416 15.1410641,14.5775 11.9995,14.5775 C8.88306217,14.5775 6.22654179,16.1919928 4.93958285,18.8834114 C4.91842542,18.927658 4.8916089,18.9673704 4.86041516,19.0020961 Z M4.15908946,18.2073619 C5.65673193,15.3095371 8.59875102,13.5775 11.9995,13.5775 C15.4019565,13.5775 18.3426666,15.3102318 19.8409056,18.2068636 C21.1926058,16.5015689 21.9998,14.3450516 21.9998,12 C21.9998,6.47714237 17.5226576,2 11.9998,2 C6.47694237,2 1.9998,6.47714237 1.9998,12 C1.9998,14.3452801 2.80715146,16.501989 4.15908946,18.2073619 Z M15.4998,8 C15.4998,6.06714237 13.9326576,4.5 11.9998,4.5 C10.0669424,4.5 8.4998,6.06714237 8.4998,8 C8.4998,9.93285763 10.0669424,11.5 11.9998,11.5 C13.9326576,11.5 15.4998,9.93285763 15.4998,8 Z M16.4998,8 C16.4998,10.4851424 14.4849424,12.5 11.9998,12.5 C9.51465763,12.5 7.4998,10.4851424 7.4998,8 C7.4998,5.51485763 9.51465763,3.5 11.9998,3.5 C14.4849424,3.5 16.4998,5.51485763 16.4998,8 Z M22.9998,12 C22.9998,18.0751424 18.0749424,23 11.9998,23 C5.92465763,23 0.9998,18.0751424 0.9998,12 C0.9998,5.92485763 5.92465763,1 11.9998,1 C18.0749424,1 22.9998,5.92485763 22.9998,12 Z" id="Combined-Shape" fill="#1557BF"></path>
    </g>
</svg>