<?xml version="1.0" encoding="UTF-8"?>
<svg width="24px" height="24px" viewBox="0 0 24 24" version="1.1" xmlns="http://www.w3.org/2000/svg" xmlns:xlink="http://www.w3.org/1999/xlink">
    <!-- Generator: Sketch 52.3 (67297) - http://www.bohemiancoding.com/sketch -->
    <title>system-icons/add</title>
    <desc>Created with Sketch.</desc>
    <g id="system-icons/add" stroke="none" stroke-width="1" fill="none" fill-rule="evenodd">
        <path d="M12.5,11.5 L16,11.5 C16.2761424,11.5 16.5,11.7238576 16.5,12 C16.5,12.2761424 16.2761424,12.5 16,12.5 L12.5,12.5 L12.5,16 C12.5,16.2761424 12.2761424,16.5 12,16.5 C11.7238576,16.5 11.5,16.2761424 11.5,16 L11.5,12.5 L8,12.5 C7.72385763,12.5 7.5,12.2761424 7.5,12 C7.5,11.7238576 7.72385763,11.5 8,11.5 L11.5,11.5 L11.5,8 C11.5,7.72385763 11.7238576,7.5 12,7.5 C12.2761424,7.5 12.5,7.72385763 12.5,8 L12.5,11.5 Z M5,3.5 C4.17157288,3.5 3.5,4.17157288 3.5,5 L3.5,19 C3.5,19.8284271 4.17157288,20.5 5,20.5 L19,20.5 C19.8284271,20.5 20.5,19.8284271 20.5,19 L20.5,5 C20.5,4.17157288 19.8284271,3.5 19,3.5 L5,3.5 Z M5,2.5 L19,2.5 C20.3807119,2.5 21.5,3.61928813 21.5,5 L21.5,19 C21.5,20.3807119 20.3807119,21.5 19,21.5 L5,21.5 C3.61928813,21.5 2.5,20.3807119 2.5,19 L2.5,5 C2.5,3.61928813 3.61928813,2.5 5,2.5 Z" id="Combined-Shape" fill="#1557BF"></path>
    </g>
</svg>