<?xml version="1.0" encoding="UTF-8"?>
<svg width="24px" height="24px" viewBox="0 0 24 24" version="1.1" xmlns="http://www.w3.org/2000/svg" xmlns:xlink="http://www.w3.org/1999/xlink">
    <!-- Generator: Sketch 52.3 (67297) - http://www.bohemiancoding.com/sketch -->
    <title>system-icons/cart</title>
    <desc>Created with Sketch.</desc>
    <g id="system-icons/cart" stroke="none" stroke-width="1" fill="none" fill-rule="evenodd">
        <path d="M8,22 C6.8954305,22 6,21.1045695 6,20 C6,18.8954305 6.8954305,18 8,18 C9.1045695,18 10,18.8954305 10,20 C10,21.1045695 9.1045695,22 8,22 Z M17,22 C15.8954305,22 15,21.1045695 15,20 C15,18.8954305 15.8954305,18 17,18 C18.1045695,18 19,18.8954305 19,20 C19,21.1045695 18.1045695,22 17,22 Z M6.2498997,7.49990085 L20,7.49990085 C20.3164633,7.49990085 20.5533256,7.79018733 20.4898335,8.10021597 L19.1154467,14.8112721 C18.9126076,15.8097845 18.011613,16.5189498 16.9890909,16.4997025 L8.3450554,16.4996854 C7.26829655,16.5086148 6.35020516,15.7276444 6.20903685,14.6746042 L4.9653447,5.45841799 C4.89219918,4.91294087 4.41259518,4.50084691 3.84090909,4.5 L2,4.5 C1.72385763,4.5 1.5,4.27614237 1.5,4 C1.5,3.72385763 1.72385763,3.5 2,3.5 L3.84164932,3.50000055 C4.9103543,3.50158272 5.81627357,4.27998296 5.9564177,5.32509833 L6.2498997,7.49990085 Z M7.20011223,14.5413023 C7.27379886,15.0909645 7.7599458,15.5045032 8.34090909,15.4997025 L16.998458,15.4997903 C17.5515769,15.5101543 18.0294592,15.1340172 18.135621,14.6114193 L19.3872253,8.49990085 L6.38484621,8.49990085 L7.20011223,14.5413023 Z" id="Combined-Shape" fill="#1557BF"></path>
    </g>
</svg>