<?xml version="1.0" encoding="UTF-8"?>
<svg width="24px" height="24px" viewBox="0 0 24 24" version="1.1" xmlns="http://www.w3.org/2000/svg" xmlns:xlink="http://www.w3.org/1999/xlink">
    <!-- Generator: Sketch 52.3 (67297) - http://www.bohemiancoding.com/sketch -->
    <title>system-icons/category-active</title>
    <desc>Created with Sketch.</desc>
    <g id="system-icons/category-active" stroke="none" stroke-width="1" fill="none" fill-rule="evenodd">
        <path d="M21,10 L15,10 C14.447,10 14,9.553 14,9 L14,3 C14,2.447 14.447,2 15,2 L21,2 C21.553,2 22,2.447 22,3 L22,9 C22,9.553 21.553,10 21,10" id="Fill-1" fill="#1557BF"></path>
        <polygon id="Fill-3" fill="#00CEE6" points="14 10 14 2 22 2"></polygon>
        <path d="M9,10 L3,10 C2.447,10 2,9.553 2,9 L2,3 C2,2.447 2.447,2 3,2 L9,2 C9.553,2 10,2.447 10,3 L10,9 C10,9.553 9.553,10 9,10" id="Fill-5" fill="#00CEE6"></path>
        <path d="M21,22.0557 L15,22.0557 C14.447,22.0557 14,21.6087 14,21.0557 L14,15.0557 C14,14.5027 14.447,14.0557 15,14.0557 L21,14.0557 C21.553,14.0557 22,14.5027 22,15.0557 L22,21.0557 C22,21.6087 21.553,22.0557 21,22.0557" id="Fill-7" fill="#1557BF"></path>
        <path d="M9,22.0557 L3,22.0557 C2.447,22.0557 2,21.6087 2,21.0557 L2,15.0557 C2,14.5027 2.447,14.0557 3,14.0557 L9,14.0557 C9.553,14.0557 10,14.5027 10,15.0557 L10,21.0557 C10,21.6087 9.553,22.0557 9,22.0557" id="Fill-9" fill="#1557BF"></path>
        <polygon id="Fill-11" fill="#00CEE6" points="2 22.0557 2 14.0557 10 14.0557"></polygon>
        <path d="M21,10 L15,10 C14.447,10 14,9.553 14,9 L14,3 C14,2.447 14.447,2 15,2 L21,2 C21.553,2 22,2.447 22,3 L22,9 C22,9.553 21.553,10 21,10 Z" id="Stroke-13" stroke="#0D3578"></path>
        <path d="M9,10 L3,10 C2.447,10 2,9.553 2,9 L2,3 C2,2.447 2.447,2 3,2 L9,2 C9.553,2 10,2.447 10,3 L10,9 C10,9.553 9.553,10 9,10 Z" id="Stroke-15" stroke="#0D3578"></path>
        <path d="M21,22.0557 L15,22.0557 C14.447,22.0557 14,21.6087 14,21.0557 L14,15.0557 C14,14.5027 14.447,14.0557 15,14.0557 L21,14.0557 C21.553,14.0557 22,14.5027 22,15.0557 L22,21.0557 C22,21.6087 21.553,22.0557 21,22.0557 Z" id="Stroke-17" stroke="#0D3578"></path>
        <path d="M9,22.0557 L3,22.0557 C2.447,22.0557 2,21.6087 2,21.0557 L2,15.0557 C2,14.5027 2.447,14.0557 3,14.0557 L9,14.0557 C9.553,14.0557 10,14.5027 10,15.0557 L10,21.0557 C10,21.6087 9.553,22.0557 9,22.0557 Z" id="Stroke-19" stroke="#0D3578"></path>
    </g>
</svg>