<?xml version="1.0" encoding="UTF-8"?>
<svg width="24px" height="24px" viewBox="0 0 24 24" version="1.1" xmlns="http://www.w3.org/2000/svg" xmlns:xlink="http://www.w3.org/1999/xlink">
    <!-- Generator: Sketch 52.3 (67297) - http://www.bohemiancoding.com/sketch -->
    <title>system-icons/category-inactive</title>
    <desc>Created with Sketch.</desc>
    <g id="system-icons/category-inactive" stroke="none" stroke-width="1" fill="none" fill-rule="evenodd">
        <path d="M21,9.5 C21.2768576,9.5 21.5,9.27685763 21.5,9 L21.5,3 C21.5,2.72314237 21.2768576,2.5 21,2.5 L15,2.5 C14.7231424,2.5 14.5,2.72314237 14.5,3 L14.5,9 C14.5,9.27685763 14.7231424,9.5 15,9.5 L21,9.5 Z M21,10.5 L15,10.5 C14.1708576,10.5 13.5,9.82914237 13.5,9 L13.5,3 C13.5,2.17085763 14.1708576,1.5 15,1.5 L21,1.5 C21.8291424,1.5 22.5,2.17085763 22.5,3 L22.5,9 C22.5,9.82914237 21.8291424,10.5 21,10.5 Z M9,9.5 C9.27685763,9.5 9.5,9.27685763 9.5,9 L9.5,3 C9.5,2.72314237 9.27685763,2.5 9,2.5 L3,2.5 C2.72314237,2.5 2.5,2.72314237 2.5,3 L2.5,9 C2.5,9.27685763 2.72314237,9.5 3,9.5 L9,9.5 Z M9,10.5 L3,10.5 C2.17085763,10.5 1.5,9.82914237 1.5,9 L1.5,3 C1.5,2.17085763 2.17085763,1.5 3,1.5 L9,1.5 C9.82914237,1.5 10.5,2.17085763 10.5,3 L10.5,9 C10.5,9.82914237 9.82914237,10.5 9,10.5 Z M21,21.5557 C21.2768576,21.5557 21.5,21.3325576 21.5,21.0557 L21.5,15.0557 C21.5,14.7788424 21.2768576,14.5557 21,14.5557 L15,14.5557 C14.7231424,14.5557 14.5,14.7788424 14.5,15.0557 L14.5,21.0557 C14.5,21.3325576 14.7231424,21.5557 15,21.5557 L21,21.5557 Z M21,22.5557 L15,22.5557 C14.1708576,22.5557 13.5,21.8848424 13.5,21.0557 L13.5,15.0557 C13.5,14.2265576 14.1708576,13.5557 15,13.5557 L21,13.5557 C21.8291424,13.5557 22.5,14.2265576 22.5,15.0557 L22.5,21.0557 C22.5,21.8848424 21.8291424,22.5557 21,22.5557 Z M9,21.5557 C9.27685763,21.5557 9.5,21.3325576 9.5,21.0557 L9.5,15.0557 C9.5,14.7788424 9.27685763,14.5557 9,14.5557 L3,14.5557 C2.72314237,14.5557 2.5,14.7788424 2.5,15.0557 L2.5,21.0557 C2.5,21.3325576 2.72314237,21.5557 3,21.5557 L9,21.5557 Z M9,22.5557 L3,22.5557 C2.17085763,22.5557 1.5,21.8848424 1.5,21.0557 L1.5,15.0557 C1.5,14.2265576 2.17085763,13.5557 3,13.5557 L9,13.5557 C9.82914237,13.5557 10.5,14.2265576 10.5,15.0557 L10.5,21.0557 C10.5,21.8848424 9.82914237,22.5557 9,22.5557 Z" id="Combined-Shape" fill="#1557BF"></path>
    </g>
</svg>