<?xml version="1.0" encoding="UTF-8"?>
<svg width="24px" height="24px" viewBox="0 0 24 24" version="1.1" xmlns="http://www.w3.org/2000/svg" xmlns:xlink="http://www.w3.org/1999/xlink">
    <!-- Generator: Sketch 52.3 (67297) - http://www.bohemiancoding.com/sketch -->
    <title>system-icons/delete</title>
    <desc>Created with Sketch.</desc>
    <g id="system-icons/delete" stroke="none" stroke-width="1" fill="none" fill-rule="evenodd">
        <path d="M16.5,5.5 L21,5.5 C21.2761424,5.5 21.5,5.72385763 21.5,6 C21.5,6.27614237 21.2761424,6.5 21,6.5 L19.5,6.5 L19.5,20 C19.5,21.3807119 18.3807119,22.5 17,22.5 L7,22.5 C5.61928813,22.5 4.5,21.3807119 4.5,20 L4.5,6.5 L3,6.5 C2.72385763,6.5 2.5,6.27614237 2.5,6 C2.5,5.72385763 2.72385763,5.5 3,5.5 L7.5,5.5 L7.5,4 C7.5,2.61928813 8.61928813,1.5 10,1.5 L14,1.5 C15.3807119,1.5 16.5,2.61928813 16.5,4 L16.5,5.5 Z M15.5,5.5 L15.5,4 C15.5,3.17157288 14.8284271,2.5 14,2.5 L10,2.5 C9.17157288,2.5 8.5,3.17157288 8.5,4 L8.5,5.5 L15.5,5.5 Z M18.5,6.5 L5.5,6.5 L5.5,20 C5.5,20.8284271 6.17157288,21.5 7,21.5 L17,21.5 C17.8284271,21.5 18.5,20.8284271 18.5,20 L18.5,6.5 Z M9.5,11 C9.5,10.7238576 9.72385763,10.5 10,10.5 C10.2761424,10.5 10.5,10.7238576 10.5,11 L10.5,17 C10.5,17.2761424 10.2761424,17.5 10,17.5 C9.72385763,17.5 9.5,17.2761424 9.5,17 L9.5,11 Z M13.5,11 C13.5,10.7238576 13.7238576,10.5 14,10.5 C14.2761424,10.5 14.5,10.7238576 14.5,11 L14.5,17 C14.5,17.2761424 14.2761424,17.5 14,17.5 C13.7238576,17.5 13.5,17.2761424 13.5,17 L13.5,11 Z" id="Combined-Shape" fill="#1557BF"></path>
    </g>
</svg>