<?xml version="1.0" encoding="UTF-8"?>
<svg width="24px" height="24px" viewBox="0 0 24 24" version="1.1" xmlns="http://www.w3.org/2000/svg" xmlns:xlink="http://www.w3.org/1999/xlink">
    <!-- Generator: Sketch 52.3 (67297) - http://www.bohemiancoding.com/sketch -->
    <title>system-icons/delivery-inactive</title>
    <desc>Created with Sketch.</desc>
    <g id="system-icons/delivery-inactive" stroke="none" stroke-width="1" fill="none" fill-rule="evenodd">
        <polygon id="Fill-1" fill="#EAEAEA" points="16 17.5 22 17.5 22 13.5 16 13.5"></polygon>
        <path d="M15.9999,17.5 L3.9999,17.5 C2.8959,17.5 1.9999,16.604 1.9999,15.5 L1.9999,6.5 L15.9999,6.5 L15.9999,17.5 Z" id="Fill-2" fill="#EAEAEA"></path>
        <path d="M15.9999,17.5 L3.9999,17.5 C2.8959,17.5 1.9999,16.604 1.9999,15.5 L1.9999,7.5 C1.9999,6.948 2.4479,6.5 2.9999,6.5 L14.9999,6.5 C15.5529,6.5 15.9999,6.948 15.9999,7.5 L15.9999,17.5 Z" id="Stroke-4" stroke="#696969" stroke-linecap="round" stroke-linejoin="round"></path>
        <polygon id="Stroke-6" stroke="#696969" stroke-linecap="round" stroke-linejoin="round" points="15.9999 13.5 15.9999 9.5 18.7789 9.5 21.9999 13.5"></polygon>
        <polygon id="Fill-8" fill="#EAEAEA" points="15.9999 13.5 15.9999 9.5 18.7789 9.5 21.9999 13.5"></polygon>
        <path d="M20.9999,17.5 L15.9999,17.5 L15.9999,9.5 L18.3009,9.5 C18.6029,9.5 18.8899,9.637 19.0789,9.873 L21.7789,13.226 C21.9219,13.403 21.9999,13.625 21.9999,13.853 L21.9999,16.5 C21.9999,17.053 21.5529,17.5 20.9999,17.5 Z" id="Stroke-10" stroke="#696969" stroke-linecap="round" stroke-linejoin="round"></path>
        <path d="M21.9999,13.5 L1.9999,13.5" id="Stroke-12" stroke="#696969" stroke-linecap="round" stroke-linejoin="round"></path>
        <path d="M9.8671,17.5 C9.8671,18.881 8.7481,20 7.3671,20 C5.9861,20 4.8671,18.881 4.8671,17.5 C4.8671,16.119 5.9861,15 7.3671,15 C8.7481,15 9.8671,16.119 9.8671,17.5" id="Fill-14" fill="#696969"></path>
        <path d="M8.6171,17.5 C8.6171,18.19 8.0571,18.75 7.3671,18.75 C6.6771,18.75 6.1171,18.19 6.1171,17.5 C6.1171,16.81 6.6771,16.25 7.3671,16.25 C8.0571,16.25 8.6171,16.81 8.6171,17.5" id="Fill-16" fill="#EAEAEA"></path>
        <path d="M21.4999,17.5 C21.4999,18.881 20.3809,20 18.9999,20 C17.6189,20 16.4999,18.881 16.4999,17.5 C16.4999,16.119 17.6189,15 18.9999,15 C20.3809,15 21.4999,16.119 21.4999,17.5" id="Fill-18" fill="#696969"></path>
        <path d="M20.2499,17.5 C20.2499,18.19 19.6899,18.75 18.9999,18.75 C18.3099,18.75 17.7499,18.19 17.7499,17.5 C17.7499,16.81 18.3099,16.25 18.9999,16.25 C19.6899,16.25 20.2499,16.81 20.2499,17.5" id="Fill-20" fill="#EAEAEA"></path>
    </g>
</svg>