<?xml version="1.0" encoding="UTF-8"?>
<svg width="24px" height="24px" viewBox="0 0 24 24" version="1.1" xmlns="http://www.w3.org/2000/svg" xmlns:xlink="http://www.w3.org/1999/xlink">
    <!-- Generator: Sketch 52.3 (67297) - http://www.bohemiancoding.com/sketch -->
    <title>system-icons/download</title>
    <desc>Created with Sketch.</desc>
    <g id="system-icons/download" stroke="none" stroke-width="1" fill="none" fill-rule="evenodd">
        <path d="M11.5,14.7928932 L11.5,2 C11.5,1.72385763 11.7238576,1.5 12,1.5 C12.2761424,1.5 12.5,1.72385763 12.5,2 L12.5,14.7928932 L15.6464466,11.6464466 C15.8417088,11.4511845 16.1582912,11.4511845 16.3535534,11.6464466 C16.5488155,11.8417088 16.5488155,12.1582912 16.3535534,12.3535534 L12.3535534,16.3535534 C12.1582912,16.5488155 11.8417088,16.5488155 11.6464466,16.3535534 L7.64644661,12.3535534 C7.45118446,12.1582912 7.45118446,11.8417088 7.64644661,11.6464466 C7.84170876,11.4511845 8.15829124,11.4511845 8.35355339,11.6464466 L11.5,14.7928932 Z M2.5,17 C2.5,16.7238576 2.72385763,16.5 3,16.5 C3.27614237,16.5 3.5,16.7238576 3.5,17 L3.5,20 C3.5,20.8284271 4.17157288,21.5 5,21.5 L19,21.5 C19.8284271,21.5 20.5,20.8284271 20.5,20 L20.5,17 C20.5,16.7238576 20.7238576,16.5 21,16.5 C21.2761424,16.5 21.5,16.7238576 21.5,17 L21.5,20 C21.5,21.3807119 20.3807119,22.5 19,22.5 L5,22.5 C3.61928813,22.5 2.5,21.3807119 2.5,20 L2.5,17 Z" id="Combined-Shape" fill="#1557BF"></path>
    </g>
</svg>