<?xml version="1.0" encoding="UTF-8"?>
<svg width="24px" height="24px" viewBox="0 0 24 24" version="1.1" xmlns="http://www.w3.org/2000/svg" xmlns:xlink="http://www.w3.org/1999/xlink">
    <!-- Generator: Sketch 52.3 (67297) - http://www.bohemiancoding.com/sketch -->
    <title>system-icons/edit</title>
    <desc>Created with Sketch.</desc>
    <g id="system-icons/edit" stroke="none" stroke-width="1" fill="none" fill-rule="evenodd">
        <path d="M19.5,14.66 C19.5,14.3838576 19.7238576,14.16 20,14.16 C20.2761424,14.16 20.5,14.3838576 20.5,14.66 L20.5,20 C20.5,21.3807119 19.3807119,22.5 18,22.5 L4,22.5 C2.61928813,22.5 1.5,21.3807119 1.5,20 L1.5,6 C1.5,4.61928813 2.61928813,3.5 4,3.5 L9.34,3.5 C9.61614237,3.5 9.84,3.72385763 9.84,4 C9.84,4.27614237 9.61614237,4.5 9.34,4.5 L4,4.5 C3.17157288,4.5 2.5,5.17157288 2.5,6 L2.5,20 C2.5,20.8284271 3.17157288,21.5 4,21.5 L18,21.5 C18.8284271,21.5 19.5,20.8284271 19.5,20 L19.5,14.66 Z M18,2.70710678 L8.5,12.2071068 L8.5,15.5 L11.7928932,15.5 L21.2928932,6 L18,2.70710678 Z M18.3535534,1.64644661 L22.3535534,5.64644661 C22.5488155,5.84170876 22.5488155,6.15829124 22.3535534,6.35355339 L12.3535534,16.3535534 C12.2597852,16.4473216 12.1326082,16.5 12,16.5 L8,16.5 C7.72385763,16.5 7.5,16.2761424 7.5,16 L7.5,12 C7.5,11.8673918 7.55267842,11.7402148 7.64644661,11.6464466 L17.6464466,1.64644661 C17.8417088,1.45118446 18.1582912,1.45118446 18.3535534,1.64644661 Z" id="Combined-Shape" fill="#1557BF"></path>
    </g>
</svg>