<?xml version="1.0" encoding="UTF-8"?>
<svg width="24px" height="24px" viewBox="0 0 24 24" version="1.1" xmlns="http://www.w3.org/2000/svg" xmlns:xlink="http://www.w3.org/1999/xlink">
    <!-- Generator: Sketch 52.3 (67297) - http://www.bohemiancoding.com/sketch -->
    <title>system-icons/favourite-inactive</title>
    <desc>Created with Sketch.</desc>
    <g id="system-icons/favourite-inactive" stroke="none" stroke-width="1" fill="none" fill-rule="evenodd">
        <path d="M20.5,9.22478584 C20.5,10.477553 20.0037377,11.679075 19.1203688,12.5648577 L12.3539136,19.3529876 C12.1585229,19.5490041 11.8410677,19.5490041 11.645677,19.3529876 L4.87922178,12.5648577 C3.04025939,10.7200046 3.04025941,7.72956709 4.87922183,5.884714 C6.71906598,4.03897636 9.70270711,4.03897634 11.5425513,5.88471396 L11.9997953,6.34342261 L12.4569564,5.88479708 C13.3403004,4.99820742 14.5388412,4.5 15.788704,4.5 C17.0385278,4.5 18.2370327,4.99817627 19.1203688,5.88471395 C20.0037687,6.77057177 20.5,7.97205788 20.5,9.22478584 Z M11.9997953,18.2917598 L17.6007699,12.6728438 L18.412215,11.8587994 C19.1086364,11.1604751 19.5,10.2129279 19.5,9.22478584 C19.5,8.23664382 19.1086364,7.28909654 18.412215,6.59077223 C17.7162616,5.89226174 16.772595,5.5 15.788704,5.5 C14.804813,5.5 13.8611464,5.89226174 13.1652758,6.59068913 L12.3539136,7.4046504 C12.1585229,7.60066695 11.8410677,7.60066695 11.645677,7.4046504 L10.8343147,6.59068913 C9.38525187,5.13698462 7.03652124,5.13698464 5.58745842,6.59068917 C4.13751388,8.04527825 4.13751386,10.4042935 5.58745837,11.8588826 L11.9997953,18.2917598 Z" id="Path" fill="#1557BF"></path>
    </g>
</svg>