<?xml version="1.0" encoding="UTF-8"?>
<svg width="24px" height="24px" viewBox="0 0 24 24" version="1.1" xmlns="http://www.w3.org/2000/svg" xmlns:xlink="http://www.w3.org/1999/xlink">
    <!-- Generator: Sketch 52.3 (67297) - http://www.bohemiancoding.com/sketch -->
    <title>system-icons/help</title>
    <desc>Created with Sketch.</desc>
    <g id="system-icons/help" stroke="none" stroke-width="1" fill="none" fill-rule="evenodd">
        <path d="M22,12.0004 C22,6.47689511 17.5232104,2.0004 12,2.0004 C6.47678962,2.0004 2,6.47689511 2,12.0004 C2,17.5232576 6.47714237,22.0004 12,22.0004 C17.5228576,22.0004 22,17.5232576 22,12.0004 Z M23,12.0004 C23,18.0755424 18.0751424,23.0004 12,23.0004 C5.92485763,23.0004 1,18.0755424 1,12.0004 C1,5.92459563 5.92451959,1.0004 12,1.0004 C18.0754804,1.0004 23,5.92459563 23,12.0004 Z M12.4125711,13.0037273 L12.4125711,14 C12.4125711,14.2761424 12.1887135,14.5 11.9125711,14.5 C11.6364287,14.5 11.4125711,14.2761424 11.4125711,14 L11.4125711,12.6494851 C11.4125711,12.4294418 11.5564263,12.235263 11.7669275,12.1711672 C11.8498147,12.1459288 12.0046905,12.092028 12.2068641,12.009931 C12.5453547,11.8724795 12.8835607,11.7076594 13.1961443,11.5172231 C14.02744,11.0107702 14.4999993,10.434854 14.4999999,9.82693763 C14.5013951,8.85069594 13.8196095,7.96914518 12.7837375,7.63667235 C11.4215454,7.1984629 9.93440181,7.85043643 9.46665998,9.066306 C9.36751224,9.32403519 9.07820632,9.45259086 8.82047713,9.35344312 C8.56274794,9.25429537 8.43419227,8.96498946 8.53334002,8.70726027 C9.19695987,6.98221635 11.2359786,6.08829711 13.0896588,6.68461561 C14.5288202,7.1465278 15.5020332,8.40489505 15.4999993,9.82765221 C15.4999993,10.8669713 14.8147731,11.7020683 13.7164262,12.3712177 C13.3536348,12.5922423 12.9682248,12.7800666 12.5830995,12.9364552 C12.5227956,12.9609429 12.465815,12.9833641 12.4125711,13.0037273 Z M12,18 C11.448,18 11,17.552 11,17 C11,16.447 11.448,16 12,16 C12.552,16 13,16.447 13,17 C13,17.552 12.552,18 12,18 Z" id="Combined-Shape" fill="#1557BF"></path>
    </g>
</svg>