<?xml version="1.0" encoding="UTF-8"?>
<svg width="24px" height="24px" viewBox="0 0 24 24" version="1.1" xmlns="http://www.w3.org/2000/svg" xmlns:xlink="http://www.w3.org/1999/xlink">
    <!-- Generator: Sketch 52.3 (67297) - http://www.bohemiancoding.com/sketch -->
    <title>system-icons/home-inactive</title>
    <desc>Created with Sketch.</desc>
    <g id="system-icons/home-inactive" stroke="none" stroke-width="1" fill="none" fill-rule="evenodd">
        <path d="M15.1162,21.5003 L17.7487,21.5003 C18.0019279,21.5003 18.2077,21.2937866 18.2077,21.0383 L18.2077,12.1853 C18.2077,11.9091576 18.4315576,11.6853 18.7077,11.6853 L21.3364036,11.6853 L12.3232051,2.63490933 C12.1446806,2.45543022 11.8557194,2.45543022 11.6769614,2.63514393 L2.66301773,11.6853 L5.4117,11.6853 C5.68784237,11.6853 5.9117,11.9091576 5.9117,12.1853 L5.9117,21.0383 C5.9117,21.2937117 6.11739846,21.5003 6.3697,21.5003 L8.9482,21.5003 L8.9482,15.0811 C8.9482,14.8049576 9.17205763,14.5811 9.4482,14.5811 L14.6162,14.5811 C14.8923424,14.5811 15.1162,14.8049576 15.1162,15.0811 L15.1162,21.5003 Z M4.9117,12.6853 L2.3837,12.6853 C1.59712383,12.6853 1.20387593,11.7333198 1.75843857,11.1764561 L10.9682051,1.92969067 C11.5376806,1.35716978 12.4627194,1.35716978 13.0319806,1.92947531 L22.2409806,11.1764753 C22.7955241,11.7333198 22.4022762,12.6853 21.6157,12.6853 L19.2077,12.6853 L19.2077,21.0383 C19.2077,21.845268 18.5550192,22.5003 17.7487,22.5003 L6.3697,22.5003 C5.56414512,22.5003 4.9117,21.8450325 4.9117,21.0383 L4.9117,12.6853 Z M9.9482,15.5811 L9.9482,21.5001 L14.1162,21.5001 L14.1162,15.5811 L9.9482,15.5811 Z" id="Combined-Shape" fill="#1557BF"></path>
    </g>
</svg>