<?xml version="1.0" encoding="UTF-8"?>
<svg width="24px" height="24px" viewBox="0 0 24 24" version="1.1" xmlns="http://www.w3.org/2000/svg" xmlns:xlink="http://www.w3.org/1999/xlink">
    <!-- Generator: Sketch 52.3 (67297) - http://www.bohemiancoding.com/sketch -->
    <title>system-icons/home-active</title>
    <desc>Created with Sketch.</desc>
    <defs>
        <path d="M9.322,0.384 L0.113,9.631 C-0.128,9.873 0.042,10.287 0.384,10.287 L3.412,10.287 L3.412,19.14 C3.412,19.671 3.841,20.102 4.37,20.102 L15.749,20.102 C16.278,20.102 16.708,19.671 16.708,19.14 L16.708,10.287 L19.616,10.287 C19.957,10.287 20.128,9.873 19.887,9.631 L10.677,0.384 C10.491,0.196 10.245,0.102 10,0.102 C9.755,0.102 9.509,0.196 9.322,0.384 Z" id="path-1"></path>
    </defs>
    <g id="system-icons/home-active" stroke="none" stroke-width="1" fill="none" fill-rule="evenodd">
        <path d="M21.8867,11.631 L12.6777,2.384 C12.3037,2.008 11.6967,2.008 11.3227,2.384 L2.1127,11.631 C1.8717,11.873 2.0427,12.287 2.3837,12.287 L5.4117,12.287 L5.4117,21.14 C5.4117,21.671 5.8407,22.102 6.3697,22.102 L17.7487,22.102 C18.2787,22.102 18.7077,21.671 18.7077,21.14 L18.7077,12.287 L21.6157,12.287 C21.9567,12.287 22.1277,11.873 21.8867,11.631" id="Fill-1" fill="#1557BF"></path>
        <g id="Group-5" transform="translate(2.000000, 2.000000)">
            <mask id="mask-2" fill="white">
                <use xlink:href="#path-1"></use>
            </mask>
            <g id="Clip-4"></g>
            <polygon id="Fill-3" fill="#00CEE6" mask="url(#mask-2)" points="-2 22.0001 -2 -1.9999 22 -1.9999"></polygon>
        </g>
        <g id="Group-12" transform="translate(2.000000, 2.000000)">
            <path d="M19.8867,9.631 L10.6777,0.384 C10.3037,0.008 9.6967,0.008 9.3227,0.384 L0.1127,9.631 C-0.1283,9.873 0.0427,10.287 0.3837,10.287 L3.4117,10.287 L3.4117,19.14 C3.4117,19.671 3.8407,20.102 4.3697,20.102 L15.7487,20.102 C16.2787,20.102 16.7077,19.671 16.7077,19.14 L16.7077,10.287 L19.6157,10.287 C19.9567,10.287 20.1277,9.873 19.8867,9.631 Z" id="Stroke-6" stroke="#0D3578"></path>
            <polygon id="Fill-8" fill="#FFFFFF" points="12.6162 13.1827 12.6162 20.1017 7.4482 20.1017 7.4482 17.7407 7.4482 13.1827"></polygon>
            <polygon id="Stroke-10" stroke="#0D3578" stroke-linejoin="round" points="12.6162 13.1827 12.6162 20.1017 7.4482 20.1017 7.4482 17.7407 7.4482 13.1827"></polygon>
        </g>
    </g>
</svg>