<?xml version="1.0" encoding="UTF-8"?>
<svg width="24px" height="24px" viewBox="0 0 24 24" version="1.1" xmlns="http://www.w3.org/2000/svg" xmlns:xlink="http://www.w3.org/1999/xlink">
    <!-- Generator: Sketch 52.3 (67297) - http://www.bohemiancoding.com/sketch -->
    <title>system-icons/link</title>
    <desc>Created with Sketch.</desc>
    <g id="system-icons/link" stroke="none" stroke-width="1" fill="none" fill-rule="evenodd">
        <path d="M9.59961748,13.2994893 C9.43421411,13.0783641 9.47938555,12.7650208 9.70051071,12.5996175 C9.92163587,12.4342141 10.2349792,12.4793855 10.4003825,12.7005107 C11.1824425,13.7460343 12.3800471,14.4003411 13.6823674,14.4936107 C14.9846877,14.5868803 16.2633117,14.1099162 17.1864466,13.1864466 L20.1803559,10.1926441 C21.8857308,8.42693911 21.8613416,5.62026261 20.1255395,3.88446051 C18.3897374,2.14865842 15.5830609,2.12426916 13.8225211,3.82458265 L12.1025211,5.53458265 C11.9066905,5.72927469 11.5901094,5.72835172 11.3954173,5.53252112 C11.2007253,5.33669053 11.2016483,5.02010939 11.3974789,4.82541735 L13.1226441,3.1103559 C15.280728,1.02600874 18.7111104,1.05581784 20.8326463,3.17735373 C22.9541822,5.29888962 22.9839913,8.72927202 20.8935534,10.8935534 L17.8936175,13.8934893 C16.7654199,15.022096 15.2026572,15.6050522 13.6109323,15.491056 C12.0192075,15.3770598 10.5554685,14.5773515 9.59961748,13.2994893 Z M14.4003825,10.7005107 C14.5657859,10.9216359 14.5206145,11.2349792 14.2994893,11.4003825 C14.0783641,11.5657859 13.7650208,11.5206145 13.5996175,11.2994893 C12.8175575,10.2539657 11.6199529,9.59965891 10.3176326,9.50638928 C9.01531229,9.41311966 7.73668826,9.89008378 6.81355339,10.8135534 L3.8196441,13.8073559 C2.11426916,15.5730609 2.13865842,18.3797374 3.87446051,20.1155395 C5.61026261,21.8513416 8.41693911,21.8757308 10.1764466,20.1764466 L11.8864466,18.4664466 C12.0817088,18.2711845 12.3982912,18.2711845 12.5935534,18.4664466 C12.7888155,18.6617088 12.7888155,18.9782912 12.5935534,19.1735534 L10.8773559,20.8896441 C8.71927202,22.9739913 5.28888962,22.9441822 3.16735373,20.8226463 C1.04581784,18.7011104 1.01600874,15.270728 3.10644661,13.1064466 L6.10638252,10.1065107 C7.23458014,8.97790397 8.79734285,8.39494782 10.3890677,8.50894403 C11.9807925,8.62294024 13.4445315,9.4226485 14.4003825,10.7005107 Z" id="Combined-Shape" fill="#1557BF"></path>
    </g>
</svg>