<?xml version="1.0" encoding="UTF-8"?>
<svg width="24px" height="24px" viewBox="0 0 24 24" version="1.1" xmlns="http://www.w3.org/2000/svg" xmlns:xlink="http://www.w3.org/1999/xlink">
    <!-- Generator: Sketch 52.3 (67297) - http://www.bohemiancoding.com/sketch -->
    <title>system-icons/login</title>
    <desc>Created with Sketch.</desc>
    <g id="system-icons/login" stroke="none" stroke-width="1" fill="none" fill-rule="evenodd">
        <path d="M13.7928932,12.5 L3,12.5 C2.72385763,12.5 2.5,12.2761424 2.5,12 C2.5,11.7238576 2.72385763,11.5 3,11.5 L13.7928932,11.5 L10.6464466,8.35355339 C10.4511845,8.15829124 10.4511845,7.84170876 10.6464466,7.64644661 C10.8417088,7.45118446 11.1582912,7.45118446 11.3535534,7.64644661 L15.3535534,11.6464466 C15.5488155,11.8417088 15.5488155,12.1582912 15.3535534,12.3535534 L11.3535534,16.3535534 C11.1582912,16.5488155 10.8417088,16.5488155 10.6464466,16.3535534 C10.4511845,16.1582912 10.4511845,15.8417088 10.6464466,15.6464466 L13.7928932,12.5 Z M14,22.5 C13.7238576,22.5 13.5,22.2761424 13.5,22 C13.5,21.7238576 13.7238576,21.5 14,21.5 L19,21.5 C19.8284271,21.5 20.5,20.8284271 20.5,20 L20.5,4 C20.5,3.17157288 19.8284271,2.5 19,2.5 L14,2.5 C13.7238576,2.5 13.5,2.27614237 13.5,2 C13.5,1.72385763 13.7238576,1.5 14,1.5 L19,1.5 C20.3807119,1.5 21.5,2.61928813 21.5,4 L21.5,20 C21.5,21.3807119 20.3807119,22.5 19,22.5 L14,22.5 Z" id="Combined-Shape" fill="#1557BF"></path>
    </g>
</svg>