<?xml version="1.0" encoding="UTF-8"?>
<svg width="104px" height="24px" viewBox="0 0 104 24" version="1.1" xmlns="http://www.w3.org/2000/svg" xmlns:xlink="http://www.w3.org/1999/xlink">
    <!-- Generator: Sketch 52.3 (67297) - http://www.bohemiancoding.com/sketch -->
    <title>logo-tablet-desktop</title>
    <desc>Created with Sketch.</desc>
    <defs>
        <polygon id="path-1" points="0.189378265 0.104039521 9.64458182 0.104039521 9.64458182 9.28251727 0.189378265 9.28251727"></polygon>
        <polygon id="path-3" points="0 0.47829623 24.4527671 0.47829623 24.4527671 23.5199277 0 23.5199277"></polygon>
        <polygon id="path-5" points="0 0.478360995 24.4527198 0.478360995 24.4527198 23.5199261 0 23.5199261"></polygon>
        <polygon id="path-7" points="0.000332249066 0.47808 24.4529453 0.47808 24.4529453 23.519865 0.000332249066 23.519865"></polygon>
    </defs>
    <g id="Page-1" stroke="none" stroke-width="1" fill="none" fill-rule="evenodd">
        <g id="Logo-Desktop">
            <g id="Group-33">
                <path d="M46.0045891,10.513488 C44.9707345,10.305168 44.3873891,10.229808 43.3005891,10.229808 C38.5302982,10.229808 36.7173891,13.077168 36.5585527,15.688848 C36.4186255,17.943408 37.6250255,19.543728 39.4161891,19.543728 C40.3318618,19.543728 41.1766255,19.227888 42.0748073,18.536208 L41.9074618,19.364688 L43.3020073,19.364688 C44.2658982,19.315728 44.4124436,18.877968 44.5566255,18.145008 L46.0736073,10.527408 C46.0509164,10.523568 46.0277527,10.518288 46.0045891,10.513488 M40.4542982,17.546928 C39.6563345,17.546928 38.9013891,16.828848 38.9680436,15.743568 C39.0370618,14.635248 40.1337891,11.752848 43.3866255,12.091248 L42.39248,16.755408 C41.7571345,17.268528 41.0579709,17.546928 40.4542982,17.546928" id="Fill-1" fill="#0D3578"></path>
                <path d="M51.4109345,10.240704 L50.8852618,10.240704 L49.98708,10.246944 C49.0217709,10.294944 48.8808982,10.720704 48.7367164,11.453184 C48.68188,11.727744 48.6218436,12.032544 48.5547164,12.365664 L47.1095891,19.369824 L48.2313709,19.371744 L48.5835527,19.369824 C49.5474436,19.318944 49.69588,18.890784 49.8376982,18.156384 C49.9624982,17.523264 50.1161345,16.729344 50.3038073,15.781344 L51.4109345,10.240704 Z" id="Fill-3" fill="#0D3578"></path>
                <path d="M51.8481127,8.169264 C51.8481127,8.940144 51.2316764,9.565104 50.4715309,9.565104 C49.7118582,9.565104 49.0958945,8.940144 49.0958945,8.169264 C49.0958945,7.397424 49.7118582,6.771504 50.4715309,6.771504 C51.2316764,6.771504 51.8481127,7.397424 51.8481127,8.169264" id="Fill-5" fill="#0D3578"></path>
                <path d="M83.1196836,10.240704 L82.5949564,10.240704 L81.6953564,10.246944 C80.7333564,10.294944 80.59012,10.720704 80.4459382,11.453184 C80.3911018,11.728224 80.3310655,12.035904 80.2644109,12.369024 L78.8178655,19.369824 L80.2941927,19.369824 C81.2576109,19.318944 81.4027382,18.890784 81.5478655,18.156384 C81.6703018,17.534304 81.8201564,16.755744 82.00452,15.826944 L83.1196836,10.240704 Z" id="Fill-7" fill="#0D3578"></path>
                <path d="M83.5563891,8.169264 C83.5563891,8.940144 82.9408982,9.565104 82.1807527,9.565104 C81.42108,9.565104 80.8065345,8.940144 80.8065345,8.169264 C80.8065345,7.397424 81.42108,6.771504 82.1807527,6.771504 C82.9408982,6.771504 83.5563891,7.397424 83.5563891,8.169264" id="Fill-9" fill="#0D3578"></path>
                <path d="M58.6864909,10.240704 C58.0336545,10.240704 57.3250364,10.542624 56.4197636,11.588064 L56.3833636,11.547264 L56.6684182,10.250784 L55.7778,10.261344 L55.4194727,10.267584 C54.4574727,10.317984 54.1194727,10.741344 53.9757636,11.476224 C53.8509636,12.109824 53.6779455,12.901344 53.4808182,13.850784 L52.3202727,19.369824 L53.7668182,19.369824 C54.7297636,19.318944 54.8739455,18.889824 55.0209636,18.156384 C55.0843091,17.831904 55.1476545,17.530944 55.2043818,17.251584 L55.8983455,13.939584 C56.1082364,13.204704 56.9118727,12.333504 57.5330364,12.210624 C58.1768909,12.083424 58.6841273,12.129024 59.5454364,13.090464 C59.5454364,13.090464 59.6281636,13.188384 59.7236545,12.969504 C59.8271818,12.730464 60.2862,11.266944 60.2862,11.266944 C59.7236545,10.543104 59.2197273,10.240704 58.6864909,10.240704" id="Fill-11" fill="#0D3578"></path>
                <path d="M76.9275709,10.240704 C76.27568,10.240704 75.5680073,10.542624 74.6622618,11.588064 L74.6253891,11.547264 L74.9090255,10.250784 L74.01888,10.261344 L73.6624436,10.267584 C72.7013891,10.317984 72.3614982,10.741344 72.2173164,11.476224 C72.0925164,12.109824 71.9185527,12.901344 71.7223709,13.850784 L70.5632436,19.369824 L72.0088436,19.369824 C72.9717891,19.318944 73.1164436,18.889824 73.2629891,18.156384 C73.3258618,17.831904 74.1398982,13.939584 74.1398982,13.939584 C74.3497891,13.204704 75.1538982,12.333504 75.77648,12.210624 C76.4208073,12.083424 76.92568,12.129024 77.7898255,13.090464 C77.7898255,13.090464 77.8701891,13.188384 77.9652073,12.969504 C78.0701527,12.729984 78.5291709,11.266944 78.5291709,11.266944 C77.9652073,10.543104 77.4636436,10.240704 76.9275709,10.240704" id="Fill-13" fill="#0D3578"></path>
                <g id="Group-17" transform="translate(94.072727, 10.081728)">
                    <mask id="mask-2" fill="white">
                        <use xlink:href="#path-1"></use>
                    </mask>
                    <g id="Clip-16"></g>
                    <path d="M3.01226545,6.503952 C3.79132,6.364272 6.67590182,5.991312 7.98488364,5.073072 C9.28535636,4.154352 9.97128364,3.093072 9.49146545,1.858512 C9.01212,0.625872 7.55375636,-0.041808 5.10597455,0.130992 C2.65819273,0.302352 1.44706545,1.278192 0.940774545,2.712432 C0.434956364,4.145712 -0.293043636,7.332912 0.637756364,8.337552 C1.62481091,9.399312 2.65819273,9.278352 4.49284727,9.278352 C4.97881091,9.278352 6.73782909,9.277392 6.73782909,9.277392 C7.68659273,9.277392 8.06335636,8.117712 8.06335636,7.427472 L3.93455636,7.432272 C3.93455636,7.432272 2.30695636,7.507152 2.30695636,6.936432 C2.30695636,6.822672 2.34382909,6.625872 3.01226545,6.503952 M2.90921091,4.394832 C3.01604727,3.876432 3.17961091,2.017872 5.31822909,1.950192 C6.89477455,1.900752 7.76270182,2.135472 6.96710182,3.112752 C6.14361091,4.123152 4.10710182,4.536912 3.25572,4.765872 C3.25572,4.765872 2.80426545,4.910352 2.90921091,4.394832" id="Fill-15" fill="#0D3578" mask="url(#mask-2)"></path>
                </g>
                <path d="M32.6223418,7.660704 C32.6346327,7.597344 32.6582691,7.482144 32.6582691,7.482144 C32.6582691,7.482144 33.0080873,6.511584 33.8826327,6.465024 C34.5543782,6.463584 35.5333964,6.467424 36.7483055,6.485184 C38.4014327,6.511584 38.7224145,5.361504 38.9999055,4.594464 L34.2125964,4.594464 L34.2069236,4.594464 C33.9076873,4.582944 33.5578691,4.588224 33.0638691,4.594464 L33.0596145,4.594464 C32.4545236,4.594464 31.8844145,4.612224 31.40696,4.880064 C31.0216873,5.094624 30.8113236,5.427264 30.6189236,5.796384 C30.4771055,6.069024 30.3272509,6.591264 30.1674691,7.365024 L29.5992509,10.121664 L28.3763055,16.066464 L27.6672145,19.507104 C28.7516509,19.336704 30.2587055,19.176864 30.7177236,16.933344 C30.9001964,16.041504 31.01176,15.501984 31.0774691,15.173184 L31.4816509,13.210944 C31.62016,12.597024 31.8243782,12.240864 32.6998691,12.192384 L32.7920509,12.192384 L32.7920509,12.191424 C33.2501236,12.195744 33.8495418,12.200544 34.6267055,12.212064 C36.2803055,12.238464 36.6027055,11.087424 36.8816145,10.320864 L32.0735055,10.320864 L32.6223418,7.660704 Z" id="Fill-18" fill="#0D3578"></path>
                <path d="M72.4971709,6.302736 C72.1643709,5.382576 71.5365891,4.809936 70.5835709,4.634256 C69.3951345,4.417296 68.1263345,4.518576 66.9241891,4.526256 C66.1659345,4.531536 65.3424436,4.498896 64.6706982,4.925616 C64.1714982,5.241456 63.8992073,5.835696 63.7380073,6.392496 C63.4600436,7.356816 63.2926982,8.370096 63.0823345,9.349776 L61.0061164,19.506576 C61.87168,19.372656 62.7533164,19.204656 63.3565164,18.500976 C63.7866982,17.996976 63.9682255,17.365776 64.0991709,16.727376 C64.2055345,16.211376 64.3213527,15.692976 64.4168436,15.172656 C64.54968,14.462736 64.6777891,13.754256 64.8493891,13.035696 C64.9467709,12.617616 65.5575345,12.593616 65.9125527,12.548016 C66.40608,12.481776 66.90008,12.436176 67.3902982,12.345936 C68.89168,12.071856 70.4455345,11.427216 71.4964073,10.266576 C72.43288,9.231696 72.9982618,7.676496 72.4971709,6.302736 M69.9491709,8.552496 C69.2575709,9.555216 68.0672436,10.039056 66.9482982,10.355856 C66.5356073,10.473936 66.1205527,10.573296 65.7073891,10.689456 C65.6109527,10.717776 65.49088,10.724496 65.4010618,10.665936 C65.3230618,10.612656 65.3656073,10.553136 65.3807345,10.473936 C65.4072073,10.344816 65.4350982,10.216176 65.4610982,10.087536 C65.5934618,9.445776 65.7253527,8.806896 65.8577164,8.166096 C65.9735345,7.602096 66.1337891,6.988656 66.6882982,6.721776 C67.1558255,6.496176 67.7150618,6.476496 68.2251345,6.493296 C68.7550618,6.507216 69.3894618,6.474576 69.8366618,6.799536 C70.43088,7.231536 70.3240436,8.009616 69.9491709,8.552496" id="Fill-20" fill="#0D3578"></path>
                <path d="M89.6256873,10.158192 C87.1755418,10.143792 85.6023055,11.278992 85.1432873,12.760752 C84.6918327,14.215152 83.9085236,17.257872 84.84216,18.386832 C85.7644509,19.509072 87.1779055,19.371792 89.0139782,19.371792 C89.4985236,19.371792 91.2570691,19.368912 91.2570691,19.368912 C92.2077236,19.368912 92.5807055,18.167952 92.5807055,17.480112 L88.4547418,17.481072 C88.4547418,17.481072 86.8451055,17.672592 86.8451055,16.014672 C86.8451055,15.467472 87.00016,14.979312 87.0880873,14.446032 C87.1703418,13.939632 87.66576,12.164112 89.6427055,12.054672 C90.0166327,12.054672 90.4132509,12.048432 90.8320873,12.048432 C91.1459782,12.048432 92.36136,12.047472 92.36136,12.047472 L92.7456873,12.047472 C93.6949236,12.047472 94.0707418,10.846032 94.0707418,10.156752 C94.0707418,10.156752 89.65736,10.158192 89.6256873,10.158192" id="Fill-22" fill="#0D3578"></path>
                <g id="Group-26" transform="translate(0.000000, 0.001728)">
                    <mask id="mask-4" fill="white">
                        <use xlink:href="#path-3"></use>
                    </mask>
                    <g id="Clip-25"></g>
                    <path d="M13.6259855,23.194272 C13.1367127,23.123232 12.7136218,23.037792 12.3760945,22.955232 C12.2252945,22.921152 12.0716582,22.881792 11.9284218,22.841952 C11.87264,22.818432 11.8211127,22.807392 11.7710036,22.796352 C8.16929455,21.682752 6.72038545,18.851232 7.30704,14.191872 L7.30704,14.183232 C7.33256727,13.862112 7.38267636,13.522752 7.45784,13.156032 L10.0762764,1.020672 C10.4383855,-0.703968 3.79467636,2.194752 3.09787636,2.656992 C2.76413091,2.880672 2.47671273,3.022752 2.30558545,3.829152 L0.417512727,12.490752 C-0.778487273,18.207072 0.582494545,21.596352 4.66165818,22.818432 L4.66024,22.818432 C7.40820364,23.759232 11.8244218,23.532672 13.6883855,23.381952 C13.9583127,23.360352 13.9082036,23.231712 13.6259855,23.194272 M17.4621673,2.656992 C17.1463855,2.864352 16.8731491,3.007392 16.7020218,3.684192 L15.3363127,9.944352 L15.0493673,11.259072 L14.9680582,11.633472 L14.6362036,13.156032 C14.5619855,13.522752 14.5123491,13.862112 14.4924945,14.183232 C14.3468945,16.315392 15.3523855,17.424672 17.3515491,17.424672 C17.47304,17.424672 17.5912218,17.419872 17.7075127,17.412192 C17.7481673,17.409312 17.7888218,17.404032 17.8304218,17.400192 C17.9027491,17.393472 17.9750764,17.386752 18.0464582,17.376672 C18.0942036,17.370432 18.1419491,17.361792 18.1892218,17.354112 C18.2502036,17.344032 18.3107127,17.332512 18.3702764,17.320032 C18.41944,17.308512 18.4690764,17.297952 18.5172945,17.285472 C18.5385673,17.280672 18.5603127,17.276832 18.5815855,17.271072 C18.58064,17.270112 18.58064,17.269152 18.5801673,17.268672 C18.9124945,17.179872 19.2192945,17.052672 19.5024582,16.888992 C19.5024582,16.890432 19.5015127,16.891392 19.5015127,16.892832 C19.5208945,16.882752 19.5383855,16.868352 19.5572945,16.857312 C19.6319855,16.811712 19.7047855,16.764192 19.77664,16.713792 C19.8083127,16.692192 19.8409309,16.669152 19.8721309,16.645152 C19.9425673,16.591872 20.0125309,16.534752 20.0801309,16.476192 C20.1061309,16.452672 20.1340218,16.432032 20.1586036,16.408992 C20.2503127,16.324992 20.3387127,16.238112 20.4228582,16.144992 L20.4238036,16.144992 C20.5088945,16.050912 20.5897309,15.951072 20.6686764,15.847872 C20.69184,15.817632 20.7131127,15.785472 20.7362764,15.753792 C20.7901673,15.679392 20.8431127,15.604032 20.8932218,15.524832 C20.9196945,15.484032 20.9442764,15.442752 20.9693309,15.400992 C21.0156582,15.325632 21.0596218,15.248352 21.1016945,15.169632 C21.1258036,15.124512 21.1503855,15.079872 21.1740218,15.033792 C21.2179855,14.948832 21.25864,14.860512 21.2992945,14.771232 C21.3182036,14.729472 21.3380582,14.688672 21.3569673,14.645472 C21.4136945,14.512992 21.4685309,14.376192 21.5195855,14.234112 L21.5285673,14.208672 C21.6207491,13.887552 21.7119855,13.558272 21.7885673,13.215552 L21.8022764,13.156032 L21.9360582,12.541152 L21.9360582,12.541632 L22.3648218,10.565472 L22.3657673,10.565472 L22.9377673,7.927872 L23.2412582,6.534912 L23.2412582,6.533952 L23.9569673,3.237792 L24.0056582,3.013632 L24.4386764,1.020672 C24.7984218,-0.703968 18.1566036,2.194752 17.4621673,2.656992" id="Fill-24" fill="#FFFFFF" mask="url(#mask-4)"></path>
                </g>
                <g id="Group-29" transform="translate(0.000000, 0.001728)">
                    <mask id="mask-6" fill="white">
                        <use xlink:href="#path-5"></use>
                    </mask>
                    <g id="Clip-28"></g>
                    <path d="M13.6883382,23.38224 C11.8243745,23.53296 7.40815636,23.75856 4.66019273,22.81872 L4.66161091,22.81872 C0.582447273,21.59664 -0.778534545,18.20784 0.417465455,12.49152 L2.30553818,3.82896 C2.47713818,3.02304 2.76455636,2.88 3.09782909,2.65728 C3.79462909,2.19504 10.4383382,-0.70368 10.0762291,1.02048 L7.45779273,13.15632 C7.38262909,13.52256 7.33299273,13.86144 7.30699273,14.18256 L7.30699273,14.19216 C6.72033818,18.852 8.16924727,21.68208 11.7709564,22.79664 C11.8210655,22.80768 11.8725927,22.81872 11.9283745,22.84176 C12.0716109,22.88112 12.2252473,22.92048 12.37652,22.95456 C12.7131018,23.03808 13.1366655,23.12352 13.6259382,23.19456 C13.9076836,23.23248 13.9582655,23.35968 13.6883382,23.38224 M17.4616473,2.65728 C17.1463382,2.86368 16.8726291,3.0072 16.7015018,3.68496 L14.6361564,13.15632 C14.5619382,13.52256 14.5123018,13.86144 14.4924473,14.18256 C14.3477927,16.31472 15.3523382,17.42448 17.3515018,17.42448 C19.4414291,17.42448 20.7801927,16.27632 21.5195382,14.2344 L21.52852,14.20848 C21.6207018,13.88832 21.7124109,13.5576 21.7889927,13.21488 L21.8022291,13.15632 L24.4386291,1.02048 C24.7983745,-0.70368 18.1565564,2.19504 17.4616473,2.65728" id="Fill-27" fill="#FFFFFF" mask="url(#mask-6)"></path>
                </g>
                <g id="Group-32" transform="translate(0.000000, 0.001728)">
                    <mask id="mask-8" fill="white">
                        <use xlink:href="#path-7"></use>
                    </mask>
                    <g id="Clip-31"></g>
                    <path d="M17.4618364,2.67144 C17.147,2.87928 16.8732909,3.02328 16.7021636,3.70536 L15.4948182,9.27528 L17.0666364,10.07544 C17.3053636,8.7036 18.5212182,7.45848 20.1256545,5.98008 C21.2450727,4.94952 22.0756545,4.23432 22.7894727,3.67512 C23.2518,3.30552 23.7089273,3.11784 24.0053273,3.03048 L24.4388182,1.0236 C24.7990364,-0.7116 18.1572182,2.20584 17.4618364,2.67144 M19.6387455,8.3388 C18.4413273,9.91848 17.9785273,11.34648 17.8310364,12.6636 C18.1014364,11.322 19.3002727,10.0932 20.8739818,8.64216 C21.8430727,7.7508 22.5942364,7.09608 23.2414,6.57384 L23.9571091,3.25608 L23.6928545,3.50376 C22.5819455,4.59576 21.5400545,5.83032 19.6387455,8.3388 M18.5812545,15.3252 C18.8507091,13.98264 20.0486,12.75576 21.6242,11.30616 C21.8860909,11.06376 22.1328545,10.84056 22.3654364,10.63176 L22.9932182,7.72104 C22.2916909,8.53704 21.4823818,9.55848 20.3880182,11.00184 C19.1910727,12.58104 18.7273273,14.00856 18.5812545,15.3252 M15.1747818,13.8804 L15.1171091,13.55928 L18.1019091,15.07032 C17.2306727,13.51896 15.7581273,12.24744 14.9682,11.634 L14.6354,13.15656 C14.5616545,13.52232 14.5129636,13.86216 14.4921636,14.18232 C14.3470364,16.31496 15.3520545,17.42424 17.3521636,17.42424 C17.7946364,17.42424 18.2044909,17.3724 18.5812545,17.27112 C17.2930727,15.3012 15.1747818,13.8804 15.1747818,13.8804 M19.5011818,16.89288 C20.4130727,16.36776 21.0753636,15.46152 21.5202,14.23464 L21.5282364,14.20824 C21.6213636,13.88808 21.7116545,13.55784 21.7887091,13.21512 L21.8028909,13.15656 L21.9366727,12.5412 C21.6870727,12.86136 21.4214,13.20504 21.1363455,13.57992 C20.2329636,14.76408 19.7479455,15.86232 19.5011818,16.89288 M15.3369273,9.94392 L15.0495091,11.25864 L17.3531091,12.42504 C16.8104182,11.46024 16.0346727,10.60296 15.3369273,9.94392 M13.6256545,23.1948 C13.1373273,23.12328 12.7132909,23.03832 12.3757636,22.9548 C12.2249636,22.92072 12.0722727,22.88136 11.9285636,22.84152 C11.8723091,22.81896 11.8203091,22.80744 11.7716182,22.79688 C8.16990909,21.68184 6.72052727,18.85176 7.30765455,14.19192 L7.30765455,14.18232 C7.33223636,13.86216 7.38234545,13.52232 7.45750909,13.15656 L10.0759455,1.02024 C10.4380545,-0.70344 3.79434545,2.19528 3.09754545,2.65704 C2.7638,2.88024 2.47732727,3.02232 2.30572727,3.82872 L0.417654545,12.49128 C-0.777872727,18.2076 0.582636364,21.5964 4.66227273,22.81896 L4.65990909,22.81896 C7.4074,23.7588 11.8245636,23.53272 13.6880545,23.382 C13.9579818,23.35992 13.9074,23.23176 13.6256545,23.1948" id="Fill-30" fill="#FC404A" mask="url(#mask-8)"></path>
                </g>
            </g>
        </g>
    </g>
</svg>