<?xml version="1.0" encoding="UTF-8"?>
<svg width="24px" height="24px" viewBox="0 0 24 24" version="1.1" xmlns="http://www.w3.org/2000/svg" xmlns:xlink="http://www.w3.org/1999/xlink">
    <!-- Generator: Sketch 52.3 (67297) - http://www.bohemiancoding.com/sketch -->
    <title>system-icons/logout</title>
    <desc>Created with Sketch.</desc>
    <g id="system-icons/logout" stroke="none" stroke-width="1" fill="none" fill-rule="evenodd">
        <path d="M10.2071068,11.5 L21,11.5 C21.2761424,11.5 21.5,11.7238576 21.5,12 C21.5,12.2761424 21.2761424,12.5 21,12.5 L10.2071068,12.5 L13.3535534,15.6464466 C13.5488155,15.8417088 13.5488155,16.1582912 13.3535534,16.3535534 C13.1582912,16.5488155 12.8417088,16.5488155 12.6464466,16.3535534 L8.64644661,12.3535534 C8.45118446,12.1582912 8.45118446,11.8417088 8.64644661,11.6464466 L12.6464466,7.64644661 C12.8417088,7.45118446 13.1582912,7.45118446 13.3535534,7.64644661 C13.5488155,7.84170876 13.5488155,8.15829124 13.3535534,8.35355339 L10.2071068,11.5 Z M10,22.5 L5,22.5 C3.61928813,22.5 2.5,21.3807119 2.5,20 L2.5,4 C2.5,2.61928813 3.61928813,1.5 5,1.5 L10,1.5 C10.2761424,1.5 10.5,1.72385763 10.5,2 C10.5,2.27614237 10.2761424,2.5 10,2.5 L5,2.5 C4.17157288,2.5 3.5,3.17157288 3.5,4 L3.5,20 C3.5,20.8284271 4.17157288,21.5 5,21.5 L10,21.5 C10.2761424,21.5 10.5,21.7238576 10.5,22 C10.5,22.2761424 10.2761424,22.5 10,22.5 Z" id="Combined-Shape" fill="#1557BF"></path>
    </g>
</svg>