<?xml version="1.0" encoding="UTF-8"?>
<svg width="40px" height="40px" viewBox="0 0 40 40" version="1.1" xmlns="http://www.w3.org/2000/svg" xmlns:xlink="http://www.w3.org/1999/xlink">
    <!-- Generator: Sketch 52.3 (67297) - http://www.bohemiancoding.com/sketch -->
    <title>mobile/logo</title>
    <desc>Created with Sketch.</desc>
    <g id="Page-1" stroke="none" stroke-width="1" fill="none" fill-rule="evenodd">
        <g id="mobile/logo">
            <g>
                <path d="M30,40 L10,40 C4.5,40 0,35.5 0,30 L0,10 C0,4.5 4.5,0 10,0 L30,0 C35.5,0 40,4.5 40,10 L40,30 C40,35.5 35.5,40 30,40" id="Fill-1" fill="#0D3578"></path>
                <path d="M24.493375,11.993375 C24.219625,12.172125 23.983375,12.294625 23.834625,12.878375 L22.045875,21.034625 C21.982125,21.350875 21.939625,21.643375 21.922125,21.918375 C21.797125,23.755875 22.665875,24.712125 24.397125,24.712125 C26.205875,24.712125 27.364625,23.723375 28.005875,21.964625 L28.012125,21.942125 C28.093375,21.665875 28.170875,21.382125 28.238375,21.085875 L28.249625,21.034625 L30.532125,10.583375 C30.843375,9.099625 25.093375,11.595875 24.493375,11.993375" id="Fill-3" fill="#FFFFFF"></path>
                <path d="M21.171875,29.681375 C20.749375,29.618875 20.381875,29.546375 20.090625,29.473875 C19.959375,29.445125 19.826875,29.410125 19.703125,29.377625 C19.654375,29.356375 19.609375,29.347625 19.566875,29.338875 C16.449375,28.377625 15.195625,25.941375 15.703125,21.927625 L15.703125,21.918875 C15.724375,21.642625 15.768125,21.351375 15.833125,21.035125 L18.099375,10.583875 C18.413125,9.098875 12.660625,11.595125 12.058125,11.993875 C11.770625,12.185125 11.520625,12.308875 11.373125,13.002625 L9.739375,20.462625 C8.703125,25.385125 9.881875,28.303875 13.413125,29.356375 L13.410625,29.356375 C15.789375,30.167625 19.613125,29.971375 21.225625,29.842625 C21.459375,29.822625 21.415625,29.712625 21.171875,29.681375" id="Fill-5" fill="#FC404A"></path>
                <path d="M24.49225,12.005625 C24.21975,12.185625 23.9835,12.309375 23.836,12.896875 L22.78975,17.693125 L24.151,18.383125 C24.35725,17.200625 25.40975,16.129375 26.7985,14.854375 C27.76725,13.966875 28.486,13.351875 29.1035,12.869375 C29.50475,12.551875 29.89975,12.390625 30.156,12.314375 L30.53225,10.586875 C30.8435,9.093125 25.0935,11.605625 24.49225,12.005625 M26.37725,16.886875 C25.341,18.246875 24.93975,19.478125 24.81225,20.611875 C25.046,19.455625 26.0835,18.396875 27.446,17.148125 C28.28475,16.380625 28.936,15.816875 29.496,15.365625 L30.11475,12.509375 L29.886,12.721875 C28.92475,13.663125 28.02225,14.726875 26.37725,16.886875 M25.461,22.904375 C25.69475,21.748125 26.73225,20.690625 28.096,19.441875 C28.32225,19.233125 28.536,19.041875 28.73725,18.860625 L29.281,16.354375 C28.6735,17.056875 27.97225,17.936875 27.02475,19.179375 C25.98975,20.539375 25.5885,21.770625 25.461,22.904375 M22.5135,21.659375 L22.4635,21.383125 L25.046,22.684375 C24.29225,21.348125 23.01725,20.253125 22.3335,19.724375 L22.046,21.035625 C21.98225,21.351875 21.93975,21.643125 21.92225,21.919375 C21.79725,23.755625 22.666,24.711875 24.39725,24.711875 C24.77975,24.711875 25.136,24.666875 25.461,24.580625 C24.346,22.881875 22.5135,21.659375 22.5135,21.659375 M26.2585,24.254375 C27.04725,23.801875 27.621,23.021875 28.006,21.964375 L28.01225,21.941875 C28.0935,21.666875 28.171,21.381875 28.2385,21.086875 L28.251,21.035625 L28.36725,20.505625 C28.151,20.781875 27.91975,21.078125 27.6735,21.400625 C26.891,22.420625 26.471,23.366875 26.2585,24.254375 M22.65225,18.269375 L22.40475,19.401875 L24.3985,20.406875 C23.9285,19.575625 23.25725,18.836875 22.65225,18.269375" id="Fill-7" fill="#FC404A"></path>
            </g>
        </g>
    </g>
</svg>