<?xml version="1.0" encoding="UTF-8"?>
<svg width="24px" height="24px" viewBox="0 0 24 24" version="1.1" xmlns="http://www.w3.org/2000/svg" xmlns:xlink="http://www.w3.org/1999/xlink">
    <!-- Generator: Sketch 52.3 (67297) - http://www.bohemiancoding.com/sketch -->
    <title>system-icons/mail</title>
    <desc>Created with Sketch.</desc>
    <g id="system-icons/mail" stroke="none" stroke-width="1" fill="none" fill-rule="evenodd">
        <path d="M2.52039568,5.75394919 L12,12.3896722 L21.4796043,5.75394919 C21.3610436,5.04569504 20.7401301,4.5 20,4.5 L4,4.5 C3.25986986,4.5 2.63895644,5.04569504 2.52039568,5.75394919 Z M2.5,6.96032778 L2.5,18 C2.5,18.8238576 3.17614237,19.5 4,19.5 L20,19.5 C20.8238576,19.5 21.5,18.8238576 21.5,18 L21.5,6.96032778 L12.2867312,13.409616 C12.1145711,13.530128 11.8854289,13.530128 11.7132688,13.409616 L2.5,6.96032778 Z M22.4999877,5.99212501 C22.500057,5.99679354 22.500061,6.00146064 22.5,6.00612486 L22.5,18 C22.5,19.3761424 21.3761424,20.5 20,20.5 L4,20.5 C2.62385763,20.5 1.5,19.3761424 1.5,18 L1.5,6.00612486 C1.49993896,6.00146064 1.49994297,5.99679354 1.50001227,5.99212501 C1.50428995,4.61957269 2.62648354,3.5 4,3.5 L20,3.5 C21.3735165,3.5 22.4957101,4.61957269 22.4999877,5.99212501 Z" id="Combined-Shape" fill="#1557BF"></path>
    </g>
</svg>