<?xml version="1.0" encoding="UTF-8"?>
<svg width="24px" height="24px" viewBox="0 0 24 24" version="1.1" xmlns="http://www.w3.org/2000/svg" xmlns:xlink="http://www.w3.org/1999/xlink">
    <!-- Generator: Sketch 52.3 (67297) - http://www.bohemiancoding.com/sketch -->
    <title>system-icons/notification-inactive</title>
    <desc>Created with Sketch.</desc>
    <g id="system-icons/notification-inactive" stroke="none" stroke-width="1" fill="none" fill-rule="evenodd">
        <path d="M14.2189121,17.1979602 L20.57753,14.6933717 C21.0259452,14.5280387 21.2203368,14.3339287 21.2409787,14.0640744 C21.2623202,13.7871972 21.0667417,13.4745625 20.7776392,13.3476053 C20.7371424,13.3298521 20.7371424,13.3298521 20.6876655,13.3092101 C20.5314282,13.2440803 20.4587416,13.2100724 20.3604044,13.1469806 C19.0759407,12.3138149 18.1676052,11.2647855 17.6567997,9.95649783 C17.5014641,9.55902153 17.3688788,9.23017899 17.0848461,8.53319095 L17.0738727,8.50626332 C16.7887346,7.80656995 16.6614726,7.49122373 16.50696,7.0969075 C16.1763519,6.25313033 15.6603814,5.49979462 14.9937983,4.87652044 C13.3767089,3.36273606 10.9042111,2.8727972 8.57842345,3.52280461 C8.54273788,3.53631206 8.5132431,3.54631752 8.48679963,3.54902436 C8.25553348,3.61675711 8.02585363,3.6958153 7.79875047,3.78631369 L7.5774472,3.8740369 C5.31407105,4.77516034 3.665024,6.65477482 3.31822032,8.78949525 C3.3062335,8.86441283 3.2961236,8.9331142 3.28717738,9.00110436 C3.16902796,9.8937889 3.28887693,10.8334608 3.62250138,11.7726974 C3.96337365,12.7294844 4.35625531,13.7205479 4.85202468,14.8927771 C5.44844414,16.3033243 5.42390827,17.901931 4.89257782,19.6299295 C4.79539741,19.9472139 4.85347824,20.1579286 5.09551422,20.3576672 C5.34802051,20.56579 5.62501707,20.5905608 6.00745492,20.4324375 L6.01525451,20.4292892 L8.0935101,19.6106876 C8.09899944,19.6082977 8.10455233,19.6059957 8.11016777,19.603784 L14.2061678,17.202784 C14.210407,17.2011143 14.2146555,17.1995065 14.2189121,17.1979602 Z M8.04696901,20.703783 L6.38546704,21.3582449 C5.68183287,21.6478777 5.01534577,21.5874882 4.45925283,21.1291407 C3.89784077,20.6658395 3.72334065,20.0327605 3.93658239,19.3365485 C4.40431601,17.8153794 4.42525377,16.451204 3.93099189,15.2822621 C3.42831268,14.0936949 3.02866693,13.0855686 2.68034104,12.1078596 C2.29581979,11.0253364 2.15582133,9.92768314 2.29577285,8.87027274 C2.30594419,8.79297054 2.3173915,8.71518092 2.33097034,8.6303222 C2.6127897,6.89559994 3.61104179,5.32494607 5.05638585,4.18314118 C4.80802274,3.19208456 5.29927444,2.13563579 6.2708333,1.69579302 C7.23688541,1.25906887 8.357396,1.57849688 8.95262358,2.40601862 C11.4084306,1.91797321 13.9446955,2.52465154 15.6769898,4.14628129 C16.4512287,4.87021656 17.0524783,5.74806277 17.4380352,6.73208025 C17.5903559,7.12080272 17.7164857,7.43334344 17.999929,8.12887815 L18.0109039,8.15580905 C18.296723,8.85718083 18.4305542,9.18911368 18.5882581,9.59265021 C19.0188401,10.6954671 19.7879551,11.5837121 20.9024773,12.306653 C20.9324489,12.32588 20.9709187,12.3438789 21.0724365,12.3861981 C21.1260617,12.4085356 21.1260617,12.4085356 21.1835147,12.4336866 C21.8510567,12.726788 22.2926163,13.4326269 22.2380436,14.1406349 C22.1826619,14.864649 21.7020546,15.3445602 20.9337455,15.6277108 L15.0097234,17.9611698 C15.4506214,19.7170633 14.4943431,21.5160006 12.7114069,22.2183047 C10.9228364,22.9217592 8.94890873,22.2737536 8.04696901,20.703783 Z M8.99198602,20.3315429 C9.67733968,21.3742787 11.0621912,21.7923856 12.3451523,21.2877901 C13.619614,20.7857756 14.3090481,19.5576388 14.0679928,18.3321153 L8.99198602,20.3315429 Z M6.00014905,3.53678953 C6.38217405,3.31130532 6.78605712,3.1127747 7.20824953,2.94468631 L7.42940922,2.85702029 C7.55944042,2.80520408 7.69026204,2.756696 7.82173047,2.7114831 C7.5039604,2.48097148 7.08103713,2.42696044 6.68301163,2.60689618 C6.29094324,2.78439285 6.04462414,3.14484992 6.00014905,3.53678953 Z" id="Combined-Shape" fill="#1557BF"></path>
    </g>
</svg>