<?xml version="1.0" encoding="UTF-8"?>
<svg width="24px" height="24px" viewBox="0 0 24 24" version="1.1" xmlns="http://www.w3.org/2000/svg" xmlns:xlink="http://www.w3.org/1999/xlink">
    <!-- Generator: Sketch 52.3 (67297) - http://www.bohemiancoding.com/sketch -->
    <title>system-icons/notification-active</title>
    <desc>Created with Sketch.</desc>
    <defs>
        <path d="M5.614,1.322 L5.393,1.409 C3.036,2.348 1.21,4.335 0.824,6.711 C0.813,6.786 0.801,6.859 0.791,6.936 C0.657,7.956 0.811,8.981 1.152,9.94 C1.529,11.002 1.953,12.05 2.392,13.088 C2.981,14.48 2.866,16.014 2.415,17.484 C2.263,17.977 2.365,18.404 2.777,18.743 C3.199,19.091 3.679,19.109 4.198,18.894 L18.75,13.162 C19.307,12.958 19.698,12.639 19.74,12.103 C19.777,11.609 19.459,11.101 18.983,10.891 C18.864,10.839 18.738,10.796 18.633,10.727 C17.486,9.983 16.613,9.029 16.122,7.775 C15.749,6.817 15.348,5.871 14.972,4.914 C14.609,3.986 14.043,3.174 13.336,2.511 C12.073,1.329 10.369,0.743 8.614,0.743 C7.606,0.743 6.581,0.936 5.614,1.322 Z" id="path-1"></path>
    </defs>
    <g id="system-icons/notification-active" stroke="none" stroke-width="1" fill="none" fill-rule="evenodd">
        <g id="Group-5" transform="translate(2.000000, 2.000000)">
            <path d="M12.3894,15.668 C13.0564,17.321 12.2014,19.094 10.5284,19.753 C8.8554,20.411 6.9594,19.723 6.2934,18.069 L12.3894,15.668 Z" id="Fill-1" fill="#FFB60F"></path>
            <path d="M4.1985,18.8945 C3.6785,19.1095 3.1985,19.0905 2.7775,18.7435 C2.3655,18.4035 2.2635,17.9765 2.4145,17.4835 C2.8665,16.0135 2.9805,14.4805 2.3915,13.0875 C1.9525,12.0495 1.5295,11.0015 1.1515,9.9405 C0.8105,8.9805 0.6565,7.9555 0.7915,6.9355 C0.8015,6.8595 0.8125,6.7855 0.8245,6.7105 C1.2105,4.3345 3.0365,2.3475 5.3925,1.4095 L5.6145,1.3215 C8.2645,0.2655 11.3475,0.6505 13.3355,2.5115 C14.0435,3.1735 14.6085,3.9855 14.9725,4.9145 C15.3475,5.8715 15.7485,6.8175 16.1225,7.7745 C16.6125,9.0295 17.4855,9.9835 18.6325,10.7275 C18.7385,10.7955 18.8645,10.8385 18.9825,10.8915 C19.4585,11.1005 19.7775,11.6095 19.7395,12.1025 C19.6985,12.6385 19.3065,12.9575 18.7505,13.1625 L4.1985,18.8945 Z" id="Fill-3" fill="#1557BF"></path>
        </g>
        <g id="Group-8" transform="translate(2.000000, 2.000000)">
            <mask id="mask-2" fill="white">
                <use xlink:href="#path-1"></use>
            </mask>
            <g id="Clip-7"></g>
            <polygon id="Fill-6" fill="#00CEE6" mask="url(#mask-2)" points="-2.0002 22 -2.0002 -2 21.9998 -2"></polygon>
        </g>
        <g id="Group-17" transform="translate(2.000000, 2.000000)">
            <path d="M4.1985,18.8945 C3.6785,19.1095 3.1985,19.0905 2.7775,18.7435 C2.3655,18.4035 2.2635,17.9765 2.4145,17.4835 C2.8665,16.0135 2.9805,14.4805 2.3915,13.0875 C1.9525,12.0495 1.5295,11.0015 1.1515,9.9405 C0.8105,8.9805 0.6565,7.9555 0.7915,6.9355 C0.8015,6.8595 0.8125,6.7855 0.8245,6.7105 C1.2105,4.3345 3.0365,2.3475 5.3925,1.4095 L5.6145,1.3215 C8.2645,0.2655 11.3475,0.6505 13.3355,2.5115 C14.0435,3.1735 14.6085,3.9855 14.9725,4.9145 C15.3475,5.8715 15.7485,6.8175 16.1225,7.7745 C16.6125,9.0295 17.4855,9.9835 18.6325,10.7275 C18.7385,10.7955 18.8645,10.8385 18.9825,10.8915 C19.4585,11.1005 19.7775,11.6095 19.7395,12.1025 C19.6985,12.6385 19.3065,12.9575 18.7505,13.1625 L4.1985,18.8945 Z" id="Stroke-9" stroke="#0D3578" stroke-linecap="round" stroke-linejoin="round"></path>
            <g id="Group-14" transform="translate(3.000000, 0.000000)">
                <path d="M0.6458,2.3564 C0.2588,1.5214 0.6308,0.5344 1.4768,0.1514 C2.3218,-0.2306 3.3198,0.1364 3.7068,0.9724" id="Fill-11" fill="#0D3578"></path>
                <path d="M0.6458,2.3564 C0.2588,1.5214 0.6308,0.5344 1.4768,0.1514 C2.3218,-0.2306 3.3198,0.1364 3.7068,0.9724" id="Stroke-13" stroke="#0D3578" stroke-linecap="round"></path>
            </g>
            <path d="M12.3894,15.668 C13.0564,17.321 12.2014,19.094 10.5284,19.753 C8.8554,20.411 6.9594,19.723 6.2934,18.069 L12.3894,15.668 Z" id="Stroke-15" stroke="#0D3578" stroke-linecap="round" stroke-linejoin="round"></path>
        </g>
    </g>
</svg>