<?xml version="1.0" encoding="UTF-8"?>
<svg width="24px" height="24px" viewBox="0 0 24 24" version="1.1" xmlns="http://www.w3.org/2000/svg" xmlns:xlink="http://www.w3.org/1999/xlink">
    <!-- Generator: Sketch 52.3 (67297) - http://www.bohemiancoding.com/sketch -->
    <title>system-icons/orders-inactive</title>
    <desc>Created with Sketch.</desc>
    <g id="system-icons/orders-inactive" stroke="none" stroke-width="1" fill="none" fill-rule="evenodd">
        <path d="M2.5,2.5 L2.5,20.9387469 L5.01465196,18.8624426 C5.19943539,18.7098701 5.46648535,18.7098505 5.65129125,18.8623957 L8.66695225,21.3516276 L11.681652,18.8624426 C11.8664568,18.7098525 12.1335432,18.7098525 12.318348,18.8624426 L15.3330477,21.3516276 L18.3487087,18.8623957 C18.5335146,18.7098505 18.8005646,18.7098701 18.985348,18.8624426 L21.5,20.9387469 L21.5,2.5 L2.5,2.5 Z M2.31834804,22.3855574 C1.99227535,22.65479 1.5,22.4228588 1.5,22 L1.5,2 C1.5,1.72385763 1.72385763,1.5 2,1.5 L22,1.5 C22.2761424,1.5 22.5,1.72385763 22.5,2 L22.5,22 C22.5,22.4228588 22.0077246,22.65479 21.681652,22.3855574 L18.6669523,19.8963724 L15.6512913,22.3856043 C15.4664854,22.5381495 15.1994354,22.5381299 15.014652,22.3855574 L12,19.8964118 L8.98534804,22.3855574 C8.80056461,22.5381299 8.53351465,22.5381495 8.34870875,22.3856043 L5.33304775,19.8963724 L2.31834804,22.3855574 Z M7,7.5 C6.72385763,7.5 6.5,7.27614237 6.5,7 C6.5,6.72385763 6.72385763,6.5 7,6.5 L17,6.5 C17.2761424,6.5 17.5,6.72385763 17.5,7 C17.5,7.27614237 17.2761424,7.5 17,7.5 L7,7.5 Z M7,11.5 C6.72385763,11.5 6.5,11.2761424 6.5,11 C6.5,10.7238576 6.72385763,10.5 7,10.5 L17,10.5 C17.2761424,10.5 17.5,10.7238576 17.5,11 C17.5,11.2761424 17.2761424,11.5 17,11.5 L7,11.5 Z M7,15.5 C6.72385763,15.5 6.5,15.2761424 6.5,15 C6.5,14.7238576 6.72385763,14.5 7,14.5 L12,14.5 C12.2761424,14.5 12.5,14.7238576 12.5,15 C12.5,15.2761424 12.2761424,15.5 12,15.5 L7,15.5 Z" id="Combined-Shape" fill="#1557BF"></path>
    </g>
</svg>