<?xml version="1.0" encoding="UTF-8"?>
<svg width="24px" height="24px" viewBox="0 0 24 24" version="1.1" xmlns="http://www.w3.org/2000/svg" xmlns:xlink="http://www.w3.org/1999/xlink">
    <!-- Generator: Sketch 52.3 (67297) - http://www.bohemiancoding.com/sketch -->
    <title>system-icons/promotions-active</title>
    <desc>Created with Sketch.</desc>
    <defs>
        <path d="M2.041,0.87 C1.395,0.87 0.87,1.395 0.87,2.041 L0.87,8.669 C0.87,8.98 0.993,9.278 1.213,9.498 L10.503,18.787 C10.96,19.245 11.703,19.245 12.159,18.787 L18.787,12.159 C19.245,11.702 19.245,10.96 18.787,10.503 L9.498,1.214 C9.277,0.993 8.981,0.87 8.669,0.87 L2.041,0.87 Z" id="path-1"></path>
    </defs>
    <g id="system-icons/promotions-active" stroke="none" stroke-width="1" fill="none" fill-rule="evenodd">
        <g id="Group-2" transform="translate(1.000000, 1.000000)">
            <path d="M19.7871,13.1592 L13.1591,19.7872 C12.7031,20.2452 11.9601,20.2452 11.5031,19.7872 L2.2131,10.4982 C1.9931,10.2772 1.8701,9.9792 1.8701,9.6692 L1.8701,3.0412 C1.8701,2.3942 2.3941,1.8702 3.0411,1.8702 L9.6691,1.8702 C9.9801,1.8702 10.2771,1.9932 10.4981,2.2142 L19.7871,11.5032 C20.2451,11.9602 20.2451,12.7022 19.7871,13.1592" id="Fill-1" fill="#1557BF"></path>
            <g id="Group" transform="translate(1.000000, 1.000000)">
                <mask id="mask-2" fill="white">
                    <use xlink:href="#path-1"></use>
                </mask>
                <g id="Clip-4"></g>
                <polygon id="Fill-3" fill="#00CEE6" mask="url(#mask-2)" points="-2 22 -2 -2 22 -2"></polygon>
            </g>
            <path d="M18.4726466,2.82024661 C18.6679088,2.62498446 18.9844912,2.62498446 19.1797534,2.82024661 C19.3750155,3.01550876 19.3750155,3.33209124 19.1797534,3.52735339 L17.7527534,4.95435339 C17.5574912,5.14961554 17.2409088,5.14961554 17.0456466,4.95435339 C16.8503845,4.75909124 16.8503845,4.44250876 17.0456466,4.24724661 L18.4726466,2.82024661 Z" id="Stroke-6" fill="#0D3578" fill-rule="nonzero"></path>
            <path d="M21,6.5869 C21.2761424,6.5869 21.5,6.81075763 21.5,7.0869 C21.5,7.36304237 21.2761424,7.5869 21,7.5869 L18.982,7.5869 C18.7058576,7.5869 18.482,7.36304237 18.482,7.0869 C18.482,6.81075763 18.7058576,6.5869 18.982,6.5869 L21,6.5869 Z" id="Stroke-8" fill="#0D3578" fill-rule="nonzero"></path>
            <path d="M14.4131,1 C14.4131,0.723857625 14.6369576,0.5 14.9131,0.5 C15.1892424,0.5 15.4131,0.723857625 15.4131,1 L15.4131,3.018 C15.4131,3.29414237 15.1892424,3.518 14.9131,3.518 C14.6369576,3.518 14.4131,3.29414237 14.4131,3.018 L14.4131,1 Z" id="Stroke-10" fill="#0D3578" fill-rule="nonzero"></path>
            <path d="M3.52735339,19.1797534 C3.33209124,19.3750155 3.01550876,19.3750155 2.82024661,19.1797534 C2.62498446,18.9844912 2.62498446,18.6679088 2.82024661,18.4726466 L4.24724661,17.0456466 C4.44250876,16.8503845 4.75909124,16.8503845 4.95435339,17.0456466 C5.14961554,17.2409088 5.14961554,17.5574912 4.95435339,17.7527534 L3.52735339,19.1797534 Z" id="Stroke-12" fill="#0D3578" fill-rule="nonzero"></path>
            <path d="M1,15.4131 C0.723857625,15.4131 0.5,15.1892424 0.5,14.9131 C0.5,14.6369576 0.723857625,14.4131 1,14.4131 L3.018,14.4131 C3.29414237,14.4131 3.518,14.6369576 3.518,14.9131 C3.518,15.1892424 3.29414237,15.4131 3.018,15.4131 L1,15.4131 Z" id="Stroke-14" fill="#0D3578" fill-rule="nonzero"></path>
            <path d="M7.5869,21 C7.5869,21.2761424 7.36304237,21.5 7.0869,21.5 C6.81075763,21.5 6.5869,21.2761424 6.5869,21 L6.5869,18.982 C6.5869,18.7058576 6.81075763,18.482 7.0869,18.482 C7.36304237,18.482 7.5869,18.7058576 7.5869,18.982 L7.5869,21 Z" id="Stroke-16" fill="#0D3578" fill-rule="nonzero"></path>
            <path d="M4.8604,4.8604 C4.3504,5.3704 4.3504,6.1964 4.8604,6.7064 C5.3704,7.2144 6.1964,7.2144 6.7054,6.7064 C7.2144,6.1964 7.2144,5.3704 6.7054,4.8604 C6.1964,4.3504 5.3704,4.3504 4.8604,4.8604" id="Fill-18" fill="#0D3578"></path>
            <path d="M13.5134262,20.1399789 C12.8620529,20.7942091 11.8015751,20.7942091 11.1495656,20.1407724 L1.85874581,10.8509508 C1.54572013,10.5365023 1.3701,10.1117729 1.3701,9.6692 L1.3701,3.0412 C1.3701,2.11805763 2.11795763,1.3702 3.0411,1.3702 L9.6691,1.3702 C10.1130047,1.3702 10.537095,1.54608826 10.8516534,1.86064661 L20.1402668,11.1492604 C20.7939744,11.8015407 20.7940444,12.8605625 20.1404769,13.5129299 L13.5134262,20.1399789 Z M19.4335466,11.8567534 L10.1445466,2.56775339 C10.01741,2.44061675 9.84762569,2.3702 9.6691,2.3702 L3.0411,2.3702 C2.67024237,2.3702 2.3701,2.67034237 2.3701,3.0412 L2.3701,9.6692 C2.3701,9.84715717 2.44085474,10.0182743 2.56663436,10.1446276 L11.8570396,19.4340332 C12.1186249,19.6961909 12.5441471,19.6961909 12.8055466,19.4336466 L19.4335466,12.8056466 C19.6961556,12.5436106 19.6961556,12.1187894 19.4335466,11.8567534 Z" id="Stroke-20" fill="#0D3578" fill-rule="nonzero"></path>
        </g>
    </g>
</svg>