<?xml version="1.0" encoding="UTF-8"?>
<svg width="24px" height="24px" viewBox="0 0 24 24" version="1.1" xmlns="http://www.w3.org/2000/svg" xmlns:xlink="http://www.w3.org/1999/xlink">
    <!-- Generator: Sketch 52.3 (67297) - http://www.bohemiancoding.com/sketch -->
    <title>system-icons/promotions-inactive</title>
    <desc>Created with Sketch.</desc>
    <g id="system-icons/promotions-inactive" stroke="none" stroke-width="1" fill="none" fill-rule="evenodd">
        <path d="M14.7740262,21.2269789 C14.1226529,21.8812091 13.0621751,21.8812091 12.4101656,21.2277724 L3.11934581,11.9379508 C2.80632013,11.6235023 2.6307,11.1987729 2.6307,10.7562 L2.6307,4.1282 C2.6307,3.20505763 3.37855763,2.4572 4.3017,2.4572 L10.9297,2.4572 C11.3736047,2.4572 11.797695,2.63308826 12.1122534,2.94764661 L21.4008668,12.2362604 C22.0545744,12.8885407 22.0546444,13.9475625 21.4010769,14.5999299 L14.7740262,21.2269789 Z M20.6941466,12.9437534 L11.4051466,3.65475339 C11.27801,3.52761675 11.1082257,3.4572 10.9297,3.4572 L4.3017,3.4572 C3.93084237,3.4572 3.6307,3.75734237 3.6307,4.1282 L3.6307,10.7562 C3.6307,10.9341572 3.70145474,11.1052743 3.82723436,11.2316276 L13.1176396,20.5210332 C13.3792249,20.7831909 13.8047471,20.7831909 14.0661466,20.5206466 L20.6941466,13.8926466 C20.9567556,13.6306106 20.9567556,13.2057894 20.6941466,12.9437534 Z M19.7332466,3.90734661 C19.9285088,3.71208446 20.2450912,3.71208446 20.4403534,3.90734661 C20.6356155,4.10260876 20.6356155,4.41919124 20.4403534,4.61445339 L19.0133534,6.04145339 C18.8180912,6.23671554 18.5015088,6.23671554 18.3062466,6.04145339 C18.1109845,5.84619124 18.1109845,5.52960876 18.3062466,5.33434661 L19.7332466,3.90734661 Z M22.2606,7.674 C22.5367424,7.674 22.7606,7.89785763 22.7606,8.174 C22.7606,8.45014237 22.5367424,8.674 22.2606,8.674 L20.2426,8.674 C19.9664576,8.674 19.7426,8.45014237 19.7426,8.174 C19.7426,7.89785763 19.9664576,7.674 20.2426,7.674 L22.2606,7.674 Z M15.6737,2.087 C15.6737,1.81085763 15.8975576,1.587 16.1737,1.587 C16.4498424,1.587 16.6737,1.81085763 16.6737,2.087 L16.6737,4.105 C16.6737,4.38114237 16.4498424,4.605 16.1737,4.605 C15.8975576,4.605 15.6737,4.38114237 15.6737,4.105 L15.6737,2.087 Z M4.78795339,20.2667534 C4.59269124,20.4620155 4.27610876,20.4620155 4.08084661,20.2667534 C3.88558446,20.0714912 3.88558446,19.7549088 4.08084661,19.5596466 L5.50784661,18.1326466 C5.70310876,17.9373845 6.01969124,17.9373845 6.21495339,18.1326466 C6.41021554,18.3279088 6.41021554,18.6444912 6.21495339,18.8397534 L4.78795339,20.2667534 Z M2.2606,16.5001 C1.98445763,16.5001 1.7606,16.2762424 1.7606,16.0001 C1.7606,15.7239576 1.98445763,15.5001 2.2606,15.5001 L4.2786,15.5001 C4.55474237,15.5001 4.7786,15.7239576 4.7786,16.0001 C4.7786,16.2762424 4.55474237,16.5001 4.2786,16.5001 L2.2606,16.5001 Z M8.8475,22.087 C8.8475,22.3631424 8.62364237,22.587 8.3475,22.587 C8.07135763,22.587 7.8475,22.3631424 7.8475,22.087 L7.8475,20.069 C7.8475,19.7928576 8.07135763,19.569 8.3475,19.569 C8.62364237,19.569 8.8475,19.7928576 8.8475,20.069 L8.8475,22.087 Z M6.121,5.9474 C6.631,5.4374 7.457,5.4374 7.966,5.9474 C8.475,6.4574 8.475,7.2834 7.966,7.7934 C7.457,8.3014 6.631,8.3014 6.121,7.7934 C5.611,7.2834 5.611,6.4574 6.121,5.9474 Z" id="Combined-Shape" fill="#1557BF"></path>
    </g>
</svg>