<?xml version="1.0" encoding="UTF-8"?>
<svg width="16px" height="16px" viewBox="0 0 16 16" version="1.1" xmlns="http://www.w3.org/2000/svg" xmlns:xlink="http://www.w3.org/1999/xlink">
    <!-- Generator: Sketch 52.3 (67297) - http://www.bohemiancoding.com/sketch -->
    <title>system-icons/remove</title>
    <desc>Created with Sketch.</desc>
    <g id="system-icons/remove" stroke="none" stroke-width="1" fill="none" fill-rule="evenodd">
        <path d="M0,8 C0,3.582 3.582,0 8,0 C12.418,0 16,3.582 16,8 C16,12.418 12.418,16 8,16 C3.582,16 0,12.418 0,8 Z M8,7.29289322 L5.35355339,4.64644661 C5.15829124,4.45118446 4.84170876,4.45118446 4.64644661,4.64644661 C4.45118446,4.84170876 4.45118446,5.15829124 4.64644661,5.35355339 L7.29289322,8 L4.64644661,10.6464466 C4.45118446,10.8417088 4.45118446,11.1582912 4.64644661,11.3535534 C4.84170876,11.5488155 5.15829124,11.5488155 5.35355339,11.3535534 L8,8.70710678 L10.6464466,11.3535534 C10.8417088,11.5488155 11.1582912,11.5488155 11.3535534,11.3535534 C11.5488155,11.1582912 11.5488155,10.8417088 11.3535534,10.6464466 L8.70710678,8 L11.3535534,5.35355339 C11.5488155,5.15829124 11.5488155,4.84170876 11.3535534,4.64644661 C11.1582912,4.45118446 10.8417088,4.45118446 10.6464466,4.64644661 L8,7.29289322 Z" id="Combined-Shape" fill="#696969"></path>
    </g>
</svg>