<?xml version="1.0" encoding="UTF-8"?>
<svg width="24px" height="24px" viewBox="0 0 24 24" version="1.1" xmlns="http://www.w3.org/2000/svg" xmlns:xlink="http://www.w3.org/1999/xlink">
    <!-- Generator: Sketch 52.3 (67297) - http://www.bohemiancoding.com/sketch -->
    <title>system-icons/search</title>
    <desc>Created with Sketch.</desc>
    <g id="system-icons/search" stroke="none" stroke-width="1" fill="none" fill-rule="evenodd">
        <path d="M16.4994165,15.7923098 L21.3535534,20.6464466 C21.5488155,20.8417088 21.5488155,21.1582912 21.3535534,21.3535534 C21.1582912,21.5488155 20.8417088,21.5488155 20.6464466,21.3535534 L15.7923098,16.4994165 C14.3819612,17.7444908 12.5292099,18.5 10.5,18.5 C6.081722,18.5 2.5,14.918278 2.5,10.5 C2.5,6.081722 6.081722,2.5 10.5,2.5 C14.918278,2.5 18.5,6.081722 18.5,10.5 C18.5,12.5292099 17.7444908,14.3819612 16.4994165,15.7923098 Z M15.4964036,15.4026502 C16.7357085,14.1397952 17.5,12.4091525 17.5,10.5 C17.5,6.63400675 14.3659932,3.5 10.5,3.5 C6.63400675,3.5 3.5,6.63400675 3.5,10.5 C3.5,14.3659932 6.63400675,17.5 10.5,17.5 C12.4091525,17.5 14.1397952,16.7357085 15.4026502,15.4964036 C15.4159555,15.4790348 15.4305543,15.4623389 15.4464466,15.4464466 C15.4623389,15.4305543 15.4790348,15.4159555 15.4964036,15.4026502 Z" id="Combined-Shape" fill="#1557BF"></path>
    </g>
</svg>