<?xml version="1.0" encoding="UTF-8"?>
<svg width="24px" height="24px" viewBox="0 0 24 24" version="1.1" xmlns="http://www.w3.org/2000/svg" xmlns:xlink="http://www.w3.org/1999/xlink">
    <!-- Generator: Sketch 52.3 (67297) - http://www.bohemiancoding.com/sketch -->
    <title>system-icons/settings</title>
    <desc>Created with Sketch.</desc>
    <g id="system-icons/settings" stroke="none" stroke-width="1" fill="none" fill-rule="evenodd">
        <path d="M12,15.0735931 C10.3025014,15.0735931 8.92640693,13.6974986 8.92640693,12 C8.92640693,10.3025014 10.3025014,8.92640693 12,8.92640693 C13.6974986,8.92640693 15.0735931,10.3025014 15.0735931,12 C15.0735931,13.6974986 13.6974986,15.0735931 12,15.0735931 Z M12,14.1212121 C13.1715131,14.1212121 14.1212121,13.1715131 14.1212121,12 C14.1212121,10.8284869 13.1715131,9.87878788 12,9.87878788 C10.8284869,9.87878788 9.87878788,10.8284869 9.87878788,12 C9.87878788,13.1715131 10.8284869,14.1212121 12,14.1212121 Z M19.7142857,13.2554113 L19.7922078,13.2554113 C20.4855523,13.2554113 21.047619,12.6933445 21.047619,12 C21.047619,11.3066555 20.4855523,10.7445887 19.7922078,10.7445887 L19.6431224,10.744585 C18.8839387,10.7415571 18.1990454,10.2879854 17.8999767,9.5901838 L17.8719069,9.45343451 C17.5981982,8.75765129 17.7568858,7.96240846 18.2866591,7.42085824 L18.3387945,7.36872294 C18.5745319,7.13324764 18.7069899,6.81371724 18.7069899,6.48051948 C18.7069899,6.14732172 18.5745319,5.82779132 18.3384199,5.59194142 C18.1029446,5.35620401 17.7834142,5.22374605 17.4502165,5.22374605 C17.1170187,5.22374605 16.7974883,5.35620401 16.5618257,5.59212877 L16.5061435,5.64777006 C15.9495066,6.1922617 15.1175029,6.34311951 14.4098162,6.03075922 C13.7120146,5.7316905 13.2584429,5.04679723 13.2554113,4.28571429 L13.2554113,4.20779221 C13.2554113,3.51444772 12.6933445,2.95238095 12,2.95238095 C11.3066555,2.95238095 10.7445887,3.51444772 10.7445887,4.20779221 L10.744585,4.35687755 C10.7415571,5.1160613 10.2879854,5.80095457 9.5901838,6.10002329 L9.45343451,6.12809308 C8.75765129,6.4018018 7.96240846,6.24311415 7.42085824,5.71334089 L7.36872294,5.66120549 C7.13324764,5.42546807 6.81371724,5.29301012 6.48051948,5.29301012 C6.14732172,5.29301012 5.82779132,5.42546807 5.59194142,5.66158009 C5.35620401,5.89705539 5.22374605,6.21658579 5.22374605,6.54978355 C5.22374605,6.88298131 5.35620401,7.20251171 5.59212877,7.43817426 L5.64777006,7.49385651 C6.1922617,8.05049344 6.34311951,8.88249712 6.03999555,9.56696935 C5.77002132,10.3010205 5.07875939,10.795433 4.28571429,10.8138528 L4.20779221,10.8138528 C3.51444772,10.8138528 2.95238095,11.3759196 2.95238095,12.0692641 C2.95238095,12.7626086 3.51444772,13.3246753 4.20779221,13.3246753 L4.35687755,13.3246791 C5.1160613,13.327707 5.80095457,13.7812787 6.09798651,14.4743975 C6.41238358,15.1867669 6.26152576,16.0187706 5.71334089,16.5791418 L5.66120549,16.6312771 C5.42546807,16.8667524 5.29301012,17.1862828 5.29301012,17.5194805 C5.29301012,17.8526783 5.42546807,18.1722087 5.66158009,18.4080586 C5.89705539,18.643796 6.21658579,18.776254 6.54978355,18.776254 C6.88298131,18.776254 7.20251171,18.643796 7.43817426,18.4078712 L7.49385651,18.3522299 C8.05049344,17.8077383 8.88249712,17.6568805 9.56696935,17.9600045 C10.3010205,18.2299787 10.795433,18.9212406 10.8138528,19.7142857 L10.8138528,19.7922078 C10.8138528,20.4855523 11.3759196,21.047619 12.0692641,21.047619 C12.7626086,21.047619 13.3246753,20.4855523 13.3246753,19.7922078 L13.3246791,19.6431224 C13.327707,18.8839387 13.7812787,18.1990454 14.4743975,17.9020135 C15.1867669,17.5876164 16.0187706,17.7384742 16.5791418,18.2866591 L16.6312771,18.3387945 C16.8667524,18.5745319 17.1862828,18.7069899 17.5194805,18.7069899 C17.8526783,18.7069899 18.1722087,18.5745319 18.4080586,18.3384199 C18.643796,18.1029446 18.776254,17.7834142 18.776254,17.4502165 C18.776254,17.1170187 18.643796,16.7974883 18.4078712,16.5618257 L18.3522299,16.5061435 C17.8083336,15.9501151 17.6572108,15.1193217 17.9702481,14.4074702 C18.2698455,13.710998 18.9540562,13.2584395 19.7142857,13.2554113 Z M18.8001325,9.26826441 C18.9604759,9.5868158 19.2869053,9.79077591 19.6450216,9.79220779 L19.7922078,9.79220779 C21.0115378,9.79220779 22,10.78067 22,12 C22,13.21933 21.0115378,14.2077922 19.7922078,14.2077922 L19.7161849,14.2077884 C19.336593,14.2093024 18.9941464,14.4360882 18.844612,14.784989 L18.8425753,14.7896718 C18.6853767,15.1458566 18.7608056,15.5618584 19.0293582,15.8364427 L19.0811189,15.8882035 C19.4956916,16.3023152 19.7286349,16.864248 19.7286349,17.4502165 C19.7286349,18.0361849 19.4956916,18.5981177 19.0814935,19.0118548 C18.6673818,19.4264275 18.105449,19.6593708 17.5194805,19.6593708 C16.933512,19.6593708 16.3715793,19.4264275 15.9576548,19.0120422 L15.9094409,18.9637874 C15.6311225,18.6915416 15.2151206,18.6161127 14.8542531,18.775348 C14.5053523,18.9248823 14.2785664,19.267329 14.2770563,19.6450216 L14.2770563,19.7922078 C14.2770563,21.0115378 13.288594,22 12.0692641,22 C10.8499341,22 9.86147186,21.0115378 9.86147186,19.7922078 L9.86160208,19.7254212 C9.85245726,19.3344664 9.60525101,18.9888355 9.21032819,18.8425753 C8.85414345,18.6853767 8.4381416,18.7608056 8.16355734,19.0293582 L8.11179654,19.0811189 C7.6976848,19.4956916 7.13575202,19.7286349 6.54978355,19.7286349 C5.96381508,19.7286349 5.4018823,19.4956916 4.98814516,19.0814935 C4.57357247,18.6673818 4.34062917,18.105449 4.34062917,17.5194805 C4.34062917,16.933512 4.57357247,16.3715793 4.98795781,15.9576548 L5.03621262,15.9094409 C5.30845844,15.6311225 5.38388734,15.2151206 5.22465203,14.8542531 C5.07511767,14.5053523 4.73267103,14.2785664 4.35497835,14.2770563 L4.20779221,14.2770563 C2.98846224,14.2770563 2,13.288594 2,12.0692641 C2,10.8499341 2.98846224,9.86147186 4.20779221,9.86147186 L4.27457877,9.86160208 C4.66553356,9.85245726 5.01116453,9.60525101 5.15742474,9.21032819 C5.31462328,8.85414345 5.23919437,8.4381416 4.97064179,8.16355734 L4.91888109,8.11179654 C4.5043084,7.6976848 4.2713651,7.13575202 4.2713651,6.54978355 C4.2713651,5.96381508 4.5043084,5.4018823 4.91850649,4.98814516 C5.33261823,4.57357247 5.89455101,4.34062917 6.48051948,4.34062917 C7.06648795,4.34062917 7.62842073,4.57357247 8.04234522,4.98795781 L8.09055907,5.03621262 C8.36887753,5.30845844 8.78487938,5.38388734 9.14106412,5.22668881 L9.26826441,5.19986753 C9.5868158,5.03952406 9.79077591,4.71309473 9.79220779,4.35497835 L9.79220779,4.20779221 C9.79220779,2.98846224 10.78067,2 12,2 C13.21933,2 14.2077922,2.98846224 14.2077922,4.20779221 L14.2077884,4.28381509 C14.2093024,4.66340696 14.4360882,5.0058536 14.7896718,5.15742474 C15.1458566,5.31462328 15.5618584,5.23919437 15.8364427,4.97064179 L15.8882035,4.91888109 C16.3023152,4.5043084 16.864248,4.2713651 17.4502165,4.2713651 C18.0361849,4.2713651 18.5981177,4.5043084 19.0118548,4.91850649 C19.4264275,5.33261823 19.6593708,5.89455101 19.6593708,6.48051948 C19.6593708,7.06648795 19.4264275,7.62842073 19.0120422,8.04234522 L18.9637874,8.09055907 C18.6915416,8.36887753 18.6161127,8.78487938 18.7733112,9.14106412 L18.8001325,9.26826441 Z" id="Combined-Shape" fill="#1557BF"></path>
    </g>
</svg>