<?xml version="1.0" encoding="UTF-8"?>
<svg width="24px" height="24px" viewBox="0 0 24 24" version="1.1" xmlns="http://www.w3.org/2000/svg" xmlns:xlink="http://www.w3.org/1999/xlink">
    <!-- Generator: Sketch 52.3 (67297) - http://www.bohemiancoding.com/sketch -->
    <title>system-icons/share</title>
    <desc>Created with Sketch.</desc>
    <g id="system-icons/share" stroke="none" stroke-width="1" fill="none" fill-rule="evenodd">
        <path d="M12.5,3.20710678 L12.5,15 C12.5,15.2761424 12.2761424,15.5 12,15.5 C11.7238576,15.5 11.5,15.2761424 11.5,15 L11.5,3.20710678 L8.35355339,6.35355339 C8.15829124,6.54881554 7.84170876,6.54881554 7.64644661,6.35355339 C7.45118446,6.15829124 7.45118446,5.84170876 7.64644661,5.64644661 L11.6464466,1.64644661 C11.8417088,1.45118446 12.1582912,1.45118446 12.3535534,1.64644661 L16.3535534,5.64644661 C16.5488155,5.84170876 16.5488155,6.15829124 16.3535534,6.35355339 C16.1582912,6.54881554 15.8417088,6.54881554 15.6464466,6.35355339 L12.5,3.20710678 Z M3.5,12 C3.5,11.7238576 3.72385763,11.5 4,11.5 C4.27614237,11.5 4.5,11.7238576 4.5,12 L4.5,20 C4.5,20.8284271 5.17157288,21.5 6,21.5 L18,21.5 C18.8284271,21.5 19.5,20.8284271 19.5,20 L19.5,12 C19.5,11.7238576 19.7238576,11.5 20,11.5 C20.2761424,11.5 20.5,11.7238576 20.5,12 L20.5,20 C20.5,21.3807119 19.3807119,22.5 18,22.5 L6,22.5 C4.61928813,22.5 3.5,21.3807119 3.5,20 L3.5,12 Z" id="Combined-Shape" fill="#1557BF"></path>
    </g>
</svg>