<?xml version="1.0" encoding="UTF-8"?>
<svg width="16px" height="16px" viewBox="0 0 16 16" version="1.1" xmlns="http://www.w3.org/2000/svg" xmlns:xlink="http://www.w3.org/1999/xlink">
    <!-- Generator: Sketch 52.3 (67297) - http://www.bohemiancoding.com/sketch -->
    <title>system-icons/star</title>
    <desc>Created with Sketch.</desc>
    <g id="system-icons/star" stroke="none" stroke-width="1" fill="none" fill-rule="evenodd">
        <path d="M10.1028809,5.52218452 L13.4552877,6.03527735 C13.8374371,6.0937661 14.0998158,6.45097386 14.0413271,6.83312321 C14.0191304,6.97814972 13.9519266,7.11253601 13.8492099,7.21729606 L11.4027485,9.71242619 L11.9730874,13.1944786 C12.0355773,13.5759941 11.776956,13.9359316 11.3954405,13.9984215 C11.2407199,14.0237637 11.0819707,13.9964313 10.9446344,13.9208044 L8.24113729,12.4320718 C8.09097849,12.349384 7.90892735,12.349384 7.75876856,12.4320718 L5.05527144,13.9208044 C4.71662268,14.1072878 4.29091892,13.9839334 4.10443548,13.6452847 C4.02880859,13.5079483 4.00147611,13.3491992 4.0268184,13.1944786 L4.59715729,9.71242619 L2.15069595,7.21729607 C1.88003439,6.9412501 1.88439933,6.49805608 2.1604453,6.22739452 C2.26520535,6.12467786 2.39959164,6.05747397 2.54461815,6.03527736 L5.89702522,5.52218452 L7.36677765,2.40432946 C7.53162246,2.05463639 7.94873784,1.90478727 8.29843091,2.06963208 C8.44547628,2.13894906 8.56381128,2.25728406 8.63312827,2.40432943 L10.1028809,5.52218452 Z" id="Path" fill="#1557BF"></path>
    </g>
</svg>