<?xml version="1.0" encoding="UTF-8"?>
<svg width="24px" height="24px" viewBox="0 0 24 24" version="1.1" xmlns="http://www.w3.org/2000/svg" xmlns:xlink="http://www.w3.org/1999/xlink">
    <!-- Generator: Sketch 52.3 (67297) - http://www.bohemiancoding.com/sketch -->
    <title>system-icons/time</title>
    <desc>Created with Sketch.</desc>
    <g id="system-icons/time" stroke="none" stroke-width="1" fill="none" fill-rule="evenodd">
        <path d="M12,22.5 C6.20101013,22.5 1.5,17.7989899 1.5,12 C1.5,6.20101013 6.20101013,1.5 12,1.5 C17.7989899,1.5 22.5,6.20101013 22.5,12 C22.5,17.7989899 17.7989899,22.5 12,22.5 Z M12,21.5 C17.2467051,21.5 21.5,17.2467051 21.5,12 C21.5,6.75329488 17.2467051,2.5 12,2.5 C6.75329488,2.5 2.5,6.75329488 2.5,12 C2.5,17.2467051 6.75329488,21.5 12,21.5 Z M15.3535534,14.6464466 C15.5488155,14.8417088 15.5488155,15.1582912 15.3535534,15.3535534 C15.1582912,15.5488155 14.8417088,15.5488155 14.6464466,15.3535534 L11.6464466,12.3535534 C11.5526784,12.2597852 11.5,12.1326082 11.5,12 L11.5,6 C11.5,5.72385763 11.7238576,5.5 12,5.5 C12.2761424,5.5 12.5,5.72385763 12.5,6 L12.5,11.7928932 L15.3535534,14.6464466 Z" id="Combined-Shape" fill="#1557BF"></path>
    </g>
</svg>